<svg width="1022" height="598" viewBox="0 0 1022 598" fill="none" xmlns="http://www.w3.org/2000/svg">
<g id="Group 52">
<g id="Group 50">
<path id="Conventional Prompting" d="M373.8 17.1572L377.443 18.3125C376.885 20.3438 375.954 21.8545 374.65 22.8447C373.355 23.8265 371.709 24.3174 369.712 24.3174C367.241 24.3174 365.209 23.4753 363.618 21.791C362.027 20.0983 361.231 17.7878 361.231 14.8594C361.231 11.7617 362.031 9.35807 363.631 7.64844C365.23 5.93034 367.334 5.07129 369.94 5.07129C372.217 5.07129 374.066 5.74414 375.488 7.08984C376.335 7.88542 376.969 9.02799 377.393 10.5176L373.673 11.4062C373.453 10.4414 372.992 9.67969 372.289 9.12109C371.595 8.5625 370.749 8.2832 369.75 8.2832C368.37 8.2832 367.249 8.77832 366.386 9.76855C365.531 10.7588 365.104 12.3626 365.104 14.5801C365.104 16.9329 365.527 18.6087 366.373 19.6074C367.219 20.6061 368.32 21.1055 369.674 21.1055C370.673 21.1055 371.532 20.7881 372.251 20.1533C372.97 19.5186 373.487 18.5199 373.8 17.1572ZM379.83 17.0684C379.83 15.8835 380.122 14.7367 380.706 13.6279C381.29 12.5192 382.115 11.6729 383.182 11.0889C384.257 10.5049 385.454 10.2129 386.774 10.2129C388.814 10.2129 390.486 10.8773 391.789 12.2061C393.092 13.5264 393.744 15.1979 393.744 17.2207C393.744 19.2604 393.084 20.9531 391.764 22.2988C390.452 23.6361 388.797 24.3047 386.8 24.3047C385.564 24.3047 384.383 24.0254 383.258 23.4668C382.141 22.9082 381.29 22.0915 380.706 21.0166C380.122 19.9333 379.83 18.6172 379.83 17.0684ZM383.486 17.2588C383.486 18.596 383.804 19.6201 384.438 20.3311C385.073 21.042 385.856 21.3975 386.787 21.3975C387.718 21.3975 388.497 21.042 389.123 20.3311C389.758 19.6201 390.075 18.5876 390.075 17.2334C390.075 15.9131 389.758 14.8975 389.123 14.1865C388.497 13.4756 387.718 13.1201 386.787 13.1201C385.856 13.1201 385.073 13.4756 384.438 14.1865C383.804 14.8975 383.486 15.9215 383.486 17.2588ZM408.813 24H405.246V17.1191C405.246 15.6634 405.17 14.724 405.018 14.3008C404.865 13.8691 404.616 13.5348 404.269 13.2979C403.93 13.0609 403.52 12.9424 403.037 12.9424C402.419 12.9424 401.865 13.1117 401.374 13.4502C400.883 13.7887 400.545 14.2373 400.358 14.7959C400.181 15.3545 400.092 16.387 400.092 17.8936V24H396.524V10.5176H399.838V12.498C401.014 10.9746 402.495 10.2129 404.281 10.2129C405.068 10.2129 405.788 10.3568 406.439 10.6445C407.091 10.9238 407.582 11.2835 407.912 11.7236C408.251 12.1637 408.483 12.6631 408.61 13.2217C408.746 13.7803 408.813 14.5801 408.813 15.6211V24ZM416.151 24L410.718 10.5176H414.463L417.002 17.3984L417.738 19.6963C417.933 19.1123 418.056 18.7272 418.106 18.541C418.225 18.1602 418.352 17.7793 418.487 17.3984L421.052 10.5176H424.721L419.363 24H416.151ZM434.725 19.709L438.279 20.3057C437.822 21.609 437.099 22.6035 436.108 23.2891C435.127 23.9661 433.895 24.3047 432.414 24.3047C430.07 24.3047 428.335 23.5387 427.209 22.0068C426.32 20.7796 425.876 19.2308 425.876 17.3604C425.876 15.126 426.46 13.3783 427.628 12.1172C428.796 10.8477 430.273 10.2129 432.059 10.2129C434.064 10.2129 435.647 10.8773 436.807 12.2061C437.966 13.5264 438.521 15.5534 438.47 18.2871H429.532C429.558 19.3451 429.845 20.1702 430.396 20.7627C430.946 21.3467 431.631 21.6387 432.452 21.6387C433.011 21.6387 433.48 21.4863 433.861 21.1816C434.242 20.877 434.53 20.3861 434.725 19.709ZM434.928 16.1035C434.902 15.071 434.636 14.2881 434.128 13.7549C433.62 13.2132 433.002 12.9424 432.274 12.9424C431.496 12.9424 430.853 13.2259 430.345 13.793C429.837 14.36 429.587 15.1302 429.596 16.1035H434.928ZM453.653 24H450.086V17.1191C450.086 15.6634 450.01 14.724 449.857 14.3008C449.705 13.8691 449.455 13.5348 449.108 13.2979C448.77 13.0609 448.359 12.9424 447.877 12.9424C447.259 12.9424 446.705 13.1117 446.214 13.4502C445.723 13.7887 445.384 14.2373 445.198 14.7959C445.021 15.3545 444.932 16.387 444.932 17.8936V24H441.364V10.5176H444.678V12.498C445.854 10.9746 447.335 10.2129 449.121 10.2129C449.908 10.2129 450.628 10.3568 451.279 10.6445C451.931 10.9238 452.422 11.2835 452.752 11.7236C453.09 12.1637 453.323 12.6631 453.45 13.2217C453.586 13.7803 453.653 14.5801 453.653 15.6211V24ZM463.467 10.5176V13.3613H461.029V18.7949C461.029 19.8952 461.05 20.5384 461.093 20.7246C461.144 20.9023 461.249 21.0505 461.41 21.1689C461.579 21.2874 461.783 21.3467 462.02 21.3467C462.35 21.3467 462.828 21.2324 463.454 21.0039L463.759 23.7715C462.929 24.127 461.99 24.3047 460.94 24.3047C460.297 24.3047 459.717 24.1989 459.201 23.9873C458.685 23.7673 458.304 23.488 458.059 23.1494C457.822 22.8024 457.657 22.3369 457.563 21.7529C457.487 21.3382 457.449 20.5003 457.449 19.2393V13.3613H455.812V10.5176H457.449V7.83887L461.029 5.75684V10.5176H463.467ZM465.942 8.68945V5.38867H469.51V8.68945H465.942ZM465.942 24V10.5176H469.51V24H465.942ZM472.354 17.0684C472.354 15.8835 472.646 14.7367 473.229 13.6279C473.813 12.5192 474.639 11.6729 475.705 11.0889C476.78 10.5049 477.978 10.2129 479.298 10.2129C481.338 10.2129 483.009 10.8773 484.312 12.2061C485.616 13.5264 486.268 15.1979 486.268 17.2207C486.268 19.2604 485.607 20.9531 484.287 22.2988C482.975 23.6361 481.321 24.3047 479.323 24.3047C478.088 24.3047 476.907 24.0254 475.781 23.4668C474.664 22.9082 473.813 22.0915 473.229 21.0166C472.646 19.9333 472.354 18.6172 472.354 17.0684ZM476.01 17.2588C476.01 18.596 476.327 19.6201 476.962 20.3311C477.597 21.042 478.38 21.3975 479.311 21.3975C480.242 21.3975 481.02 21.042 481.646 20.3311C482.281 19.6201 482.599 18.5876 482.599 17.2334C482.599 15.9131 482.281 14.8975 481.646 14.1865C481.02 13.4756 480.242 13.1201 479.311 13.1201C478.38 13.1201 477.597 13.4756 476.962 14.1865C476.327 14.8975 476.01 15.9215 476.01 17.2588ZM501.337 24H497.77V17.1191C497.77 15.6634 497.693 14.724 497.541 14.3008C497.389 13.8691 497.139 13.5348 496.792 13.2979C496.453 13.0609 496.043 12.9424 495.561 12.9424C494.943 12.9424 494.388 13.1117 493.897 13.4502C493.407 13.7887 493.068 14.2373 492.882 14.7959C492.704 15.3545 492.615 16.387 492.615 17.8936V24H489.048V10.5176H492.361V12.498C493.538 10.9746 495.019 10.2129 496.805 10.2129C497.592 10.2129 498.311 10.3568 498.963 10.6445C499.615 10.9238 500.105 11.2835 500.436 11.7236C500.774 12.1637 501.007 12.6631 501.134 13.2217C501.269 13.7803 501.337 14.5801 501.337 15.6211V24ZM507.634 14.6309L504.396 14.0469C504.76 12.7435 505.387 11.7786 506.275 11.1523C507.164 10.526 508.484 10.2129 510.236 10.2129C511.827 10.2129 513.012 10.4033 513.791 10.7842C514.57 11.1566 515.116 11.6348 515.429 12.2188C515.75 12.7943 515.911 13.8564 515.911 15.4053L515.873 19.5693C515.873 20.7542 515.928 21.6302 516.038 22.1973C516.157 22.7559 516.372 23.3568 516.686 24H513.156C513.063 23.763 512.949 23.4118 512.813 22.9463C512.754 22.7347 512.712 22.5951 512.687 22.5273C512.077 23.1198 511.425 23.5641 510.731 23.8604C510.037 24.1566 509.297 24.3047 508.51 24.3047C507.122 24.3047 506.026 23.9281 505.222 23.1748C504.426 22.4215 504.028 21.4694 504.028 20.3184C504.028 19.5566 504.21 18.8796 504.574 18.2871C504.938 17.6862 505.446 17.2292 506.098 16.916C506.758 16.5944 507.706 16.3151 508.941 16.0781C510.609 15.765 511.764 15.473 512.407 15.2021V14.8467C512.407 14.1611 512.238 13.6745 511.899 13.3867C511.561 13.0905 510.922 12.9424 509.982 12.9424C509.348 12.9424 508.853 13.0693 508.497 13.3232C508.142 13.5687 507.854 14.0046 507.634 14.6309ZM512.407 17.5254C511.95 17.6777 511.227 17.8597 510.236 18.0713C509.246 18.2829 508.599 18.4902 508.294 18.6934C507.828 19.0234 507.596 19.4424 507.596 19.9502C507.596 20.4495 507.782 20.8812 508.154 21.2451C508.527 21.609 509.001 21.791 509.576 21.791C510.219 21.791 510.833 21.5794 511.417 21.1562C511.849 20.8346 512.132 20.4411 512.268 19.9756C512.361 19.6709 512.407 19.0911 512.407 18.2363V17.5254ZM519.44 24V5.38867H523.008V24H519.44ZM533.938 24V5.38867H539.969C542.254 5.38867 543.743 5.48177 544.438 5.66797C545.504 5.94727 546.397 6.55664 547.116 7.49609C547.836 8.42708 548.195 9.63314 548.195 11.1143C548.195 12.2568 547.988 13.2174 547.573 13.9961C547.159 14.7747 546.63 15.3883 545.986 15.8369C545.352 16.277 544.704 16.569 544.044 16.7129C543.147 16.8906 541.848 16.9795 540.146 16.9795H537.696V24H533.938ZM537.696 8.53711V13.8184H539.753C541.234 13.8184 542.224 13.721 542.724 13.5264C543.223 13.3317 543.612 13.027 543.892 12.6123C544.179 12.1976 544.323 11.7152 544.323 11.165C544.323 10.488 544.124 9.92936 543.727 9.48926C543.329 9.04915 542.825 8.77409 542.216 8.66406C541.767 8.57943 540.866 8.53711 539.512 8.53711H537.696ZM554.67 24H551.103V10.5176H554.416V12.4346C554.983 11.529 555.491 10.9323 555.939 10.6445C556.396 10.3568 556.913 10.2129 557.488 10.2129C558.301 10.2129 559.084 10.4372 559.837 10.8857L558.732 13.9961C558.132 13.6068 557.573 13.4121 557.057 13.4121C556.557 13.4121 556.134 13.5518 555.787 13.8311C555.44 14.1019 555.165 14.597 554.962 15.3164C554.767 16.0358 554.67 17.5423 554.67 19.8359V24ZM560.561 17.0684C560.561 15.8835 560.853 14.7367 561.437 13.6279C562.021 12.5192 562.846 11.6729 563.912 11.0889C564.987 10.5049 566.185 10.2129 567.505 10.2129C569.545 10.2129 571.216 10.8773 572.52 12.2061C573.823 13.5264 574.475 15.1979 574.475 17.2207C574.475 19.2604 573.814 20.9531 572.494 22.2988C571.182 23.6361 569.528 24.3047 567.53 24.3047C566.295 24.3047 565.114 24.0254 563.988 23.4668C562.871 22.9082 562.021 22.0915 561.437 21.0166C560.853 19.9333 560.561 18.6172 560.561 17.0684ZM564.217 17.2588C564.217 18.596 564.534 19.6201 565.169 20.3311C565.804 21.042 566.587 21.3975 567.518 21.3975C568.449 21.3975 569.227 21.042 569.854 20.3311C570.488 19.6201 570.806 18.5876 570.806 17.2334C570.806 15.9131 570.488 14.8975 569.854 14.1865C569.227 13.4756 568.449 13.1201 567.518 13.1201C566.587 13.1201 565.804 13.4756 565.169 14.1865C564.534 14.8975 564.217 15.9215 564.217 17.2588ZM577.014 10.5176H580.302V12.3584C581.478 10.9281 582.879 10.2129 584.504 10.2129C585.367 10.2129 586.116 10.3906 586.751 10.7461C587.386 11.1016 587.906 11.639 588.312 12.3584C588.905 11.639 589.544 11.1016 590.229 10.7461C590.915 10.3906 591.647 10.2129 592.426 10.2129C593.416 10.2129 594.254 10.416 594.939 10.8223C595.625 11.2201 596.137 11.8083 596.476 12.5869C596.721 13.1624 596.844 14.0934 596.844 15.3799V24H593.276V16.2939C593.276 14.9567 593.154 14.0934 592.908 13.7041C592.578 13.1963 592.07 12.9424 591.385 12.9424C590.885 12.9424 590.416 13.0947 589.976 13.3994C589.535 13.7041 589.218 14.1527 589.023 14.7451C588.829 15.3291 588.731 16.2559 588.731 17.5254V24H585.164V16.6113C585.164 15.2995 585.101 14.4531 584.974 14.0723C584.847 13.6914 584.648 13.4079 584.377 13.2217C584.115 13.0355 583.755 12.9424 583.298 12.9424C582.748 12.9424 582.253 13.0905 581.812 13.3867C581.372 13.6829 581.055 14.1104 580.86 14.6689C580.674 15.2275 580.581 16.1543 580.581 17.4492V24H577.014V10.5176ZM600.31 10.5176H603.636V12.498C604.067 11.821 604.651 11.2708 605.388 10.8477C606.124 10.4245 606.941 10.2129 607.838 10.2129C609.404 10.2129 610.732 10.8265 611.824 12.0537C612.916 13.2809 613.462 14.9906 613.462 17.1826C613.462 19.4339 612.912 21.1859 611.812 22.4385C610.711 23.6826 609.378 24.3047 607.812 24.3047C607.068 24.3047 606.391 24.1566 605.781 23.8604C605.18 23.5641 604.546 23.0563 603.877 22.3369V29.1289H600.31V10.5176ZM603.839 17.0303C603.839 18.5452 604.139 19.6667 604.74 20.3945C605.341 21.1139 606.073 21.4736 606.937 21.4736C607.766 21.4736 608.456 21.1436 609.006 20.4834C609.556 19.8148 609.831 18.723 609.831 17.208C609.831 15.7946 609.548 14.7451 608.98 14.0596C608.413 13.374 607.711 13.0312 606.873 13.0312C606.001 13.0312 605.278 13.3698 604.702 14.0469C604.127 14.7155 603.839 15.71 603.839 17.0303ZM622.488 10.5176V13.3613H620.051V18.7949C620.051 19.8952 620.072 20.5384 620.114 20.7246C620.165 20.9023 620.271 21.0505 620.432 21.1689C620.601 21.2874 620.804 21.3467 621.041 21.3467C621.371 21.3467 621.849 21.2324 622.476 21.0039L622.78 23.7715C621.951 24.127 621.011 24.3047 619.962 24.3047C619.319 24.3047 618.739 24.1989 618.223 23.9873C617.706 23.7673 617.326 23.488 617.08 23.1494C616.843 22.8024 616.678 22.3369 616.585 21.7529C616.509 21.3382 616.471 20.5003 616.471 19.2393V13.3613H614.833V10.5176H616.471V7.83887L620.051 5.75684V10.5176H622.488ZM624.964 8.68945V5.38867H628.531V8.68945H624.964ZM624.964 24V10.5176H628.531V24H624.964ZM644.464 24H640.896V17.1191C640.896 15.6634 640.82 14.724 640.668 14.3008C640.516 13.8691 640.266 13.5348 639.919 13.2979C639.58 13.0609 639.17 12.9424 638.688 12.9424C638.07 12.9424 637.515 13.1117 637.024 13.4502C636.534 13.7887 636.195 14.2373 636.009 14.7959C635.831 15.3545 635.742 16.387 635.742 17.8936V24H632.175V10.5176H635.488V12.498C636.665 10.9746 638.146 10.2129 639.932 10.2129C640.719 10.2129 641.438 10.3568 642.09 10.6445C642.742 10.9238 643.232 11.2835 643.562 11.7236C643.901 12.1637 644.134 12.6631 644.261 13.2217C644.396 13.7803 644.464 14.5801 644.464 15.6211V24ZM647.765 24.8887L651.84 25.3838C651.908 25.8577 652.064 26.1836 652.31 26.3613C652.648 26.6152 653.181 26.7422 653.909 26.7422C654.84 26.7422 655.538 26.6025 656.004 26.3232C656.317 26.137 656.554 25.8366 656.715 25.4219C656.825 25.1257 656.88 24.5798 656.88 23.7842V21.8164C655.813 23.2721 654.468 24 652.843 24C651.032 24 649.597 23.234 648.539 21.7021C647.71 20.4919 647.295 18.9854 647.295 17.1826C647.295 14.9229 647.837 13.1963 648.92 12.0029C650.012 10.8096 651.366 10.2129 652.982 10.2129C654.65 10.2129 656.025 10.945 657.108 12.4092V10.5176H660.447V22.6162C660.447 24.2074 660.316 25.3965 660.054 26.1836C659.791 26.9707 659.423 27.5885 658.949 28.0371C658.475 28.4857 657.84 28.8369 657.045 29.0908C656.258 29.3447 655.259 29.4717 654.049 29.4717C651.764 29.4717 650.143 29.0781 649.187 28.291C648.23 27.5124 647.752 26.5221 647.752 25.3203C647.752 25.2018 647.756 25.0579 647.765 24.8887ZM650.951 16.9795C650.951 18.4098 651.226 19.4593 651.776 20.1279C652.335 20.7881 653.021 21.1182 653.833 21.1182C654.705 21.1182 655.441 20.7796 656.042 20.1025C656.643 19.417 656.943 18.4056 656.943 17.0684C656.943 15.6719 656.656 14.6351 656.08 13.958C655.505 13.2809 654.777 12.9424 653.896 12.9424C653.042 12.9424 652.335 13.2767 651.776 13.9453C651.226 14.6055 650.951 15.6169 650.951 16.9795Z" fill="#343434"/>
<g id="Group 42">
<g id="Group 40">
<path id="Input" d="M25.4248 94V75.3887H27.8877V94H25.4248ZM31.9502 94V80.5176H34.0068V82.4346C34.9971 80.9535 36.4274 80.2129 38.2979 80.2129C39.1104 80.2129 39.8551 80.361 40.5322 80.6572C41.2178 80.945 41.7298 81.3258 42.0684 81.7998C42.4069 82.2738 42.6439 82.8366 42.7793 83.4883C42.8639 83.9115 42.9062 84.652 42.9062 85.71V94H40.6211V85.7988C40.6211 84.8678 40.5322 84.1738 40.3545 83.7168C40.1768 83.2513 39.8594 82.8831 39.4023 82.6123C38.9538 82.333 38.4248 82.1934 37.8154 82.1934C36.8421 82.1934 36 82.5023 35.2891 83.1201C34.5866 83.738 34.2354 84.9102 34.2354 86.6367V94H31.9502ZM46.4229 99.167V80.5176H48.5049V82.2695C48.9958 81.584 49.5501 81.0719 50.168 80.7334C50.7858 80.3864 51.5348 80.2129 52.415 80.2129C53.5661 80.2129 54.5817 80.5091 55.4619 81.1016C56.3421 81.694 57.0065 82.5319 57.4551 83.6152C57.9036 84.6901 58.1279 85.8708 58.1279 87.1572C58.1279 88.5368 57.8783 89.7809 57.3789 90.8896C56.888 91.9899 56.1686 92.8363 55.2207 93.4287C54.2812 94.0127 53.291 94.3047 52.25 94.3047C51.4883 94.3047 50.8027 94.1439 50.1934 93.8223C49.5924 93.5007 49.0973 93.0944 48.708 92.6035V99.167H46.4229ZM48.4922 87.335C48.4922 89.07 48.8434 90.3522 49.5459 91.1816C50.2484 92.0111 51.099 92.4258 52.0977 92.4258C53.1133 92.4258 53.9808 91.9984 54.7002 91.1436C55.4281 90.2803 55.792 88.9473 55.792 87.1445C55.792 85.4264 55.4365 84.14 54.7256 83.2852C54.0231 82.4303 53.181 82.0029 52.1992 82.0029C51.2259 82.0029 50.3626 82.46 49.6094 83.374C48.8646 84.2796 48.4922 85.5999 48.4922 87.335ZM69.7314 94V92.0195C68.682 93.543 67.2559 94.3047 65.4531 94.3047C64.6576 94.3047 63.9128 94.1523 63.2188 93.8477C62.5332 93.543 62.0212 93.1621 61.6826 92.7051C61.3525 92.2396 61.1198 91.6725 60.9844 91.0039C60.8913 90.5553 60.8447 89.8444 60.8447 88.8711V80.5176H63.1299V87.9951C63.1299 89.1885 63.1764 89.9925 63.2695 90.4072C63.4134 91.0081 63.7181 91.4821 64.1836 91.8291C64.6491 92.1676 65.2246 92.3369 65.9102 92.3369C66.5957 92.3369 67.2389 92.1634 67.8398 91.8164C68.4408 91.4609 68.8639 90.9827 69.1094 90.3818C69.3633 89.7725 69.4902 88.8923 69.4902 87.7412V80.5176H71.7754V94H69.7314ZM80.3574 91.9561L80.6875 93.9746C80.0443 94.11 79.4688 94.1777 78.9609 94.1777C78.1315 94.1777 77.4883 94.0465 77.0312 93.7842C76.5742 93.5218 76.2526 93.179 76.0664 92.7559C75.8802 92.3242 75.7871 91.4229 75.7871 90.0518V82.2949H74.1113V80.5176H75.7871V77.1787L78.0596 75.8076V80.5176H80.3574V82.2949H78.0596V90.1787C78.0596 90.8304 78.0977 91.2493 78.1738 91.4355C78.2585 91.6217 78.3896 91.7699 78.5674 91.8799C78.7536 91.9899 79.016 92.0449 79.3545 92.0449C79.6084 92.0449 79.9427 92.0153 80.3574 91.9561Z" fill="#343434"/>
<rect id="Rectangle 56" x="1" y="61" width="102" height="48" rx="11" stroke="#343434" stroke-width="2"/>
</g>
<g id="Group 41">
<path id="Output" d="M931.257 84.9355C931.257 81.8464 932.086 79.43 933.745 77.6865C935.404 75.9346 937.545 75.0586 940.169 75.0586C941.887 75.0586 943.436 75.4691 944.815 76.29C946.195 77.111 947.244 78.2578 947.964 79.7305C948.692 81.1947 949.056 82.8577 949.056 84.7197C949.056 86.6071 948.675 88.2956 947.913 89.7852C947.151 91.2747 946.072 92.4046 944.676 93.1748C943.279 93.9365 941.773 94.3174 940.156 94.3174C938.404 94.3174 936.839 93.8942 935.459 93.0479C934.079 92.2015 933.034 91.0462 932.323 89.582C931.612 88.1178 931.257 86.569 931.257 84.9355ZM933.796 84.9736C933.796 87.2165 934.397 88.9854 935.599 90.2803C936.809 91.5667 938.324 92.21 940.144 92.21C941.997 92.21 943.521 91.5583 944.714 90.2549C945.916 88.9515 946.517 87.1022 946.517 84.707C946.517 83.1921 946.258 81.8717 945.742 80.7461C945.234 79.612 944.485 78.736 943.495 78.1182C942.513 77.4919 941.409 77.1787 940.182 77.1787C938.438 77.1787 936.936 77.7796 935.675 78.9814C934.422 80.1748 933.796 82.1722 933.796 84.9736ZM960.786 94V92.0195C959.737 93.543 958.311 94.3047 956.508 94.3047C955.712 94.3047 954.967 94.1523 954.273 93.8477C953.588 93.543 953.076 93.1621 952.737 92.7051C952.407 92.2396 952.174 91.6725 952.039 91.0039C951.946 90.5553 951.899 89.8444 951.899 88.8711V80.5176H954.185V87.9951C954.185 89.1885 954.231 89.9925 954.324 90.4072C954.468 91.0081 954.773 91.4821 955.238 91.8291C955.704 92.1676 956.279 92.3369 956.965 92.3369C957.65 92.3369 958.294 92.1634 958.895 91.8164C959.495 91.4609 959.919 90.9827 960.164 90.3818C960.418 89.7725 960.545 88.8923 960.545 87.7412V80.5176H962.83V94H960.786ZM971.412 91.9561L971.742 93.9746C971.099 94.11 970.523 94.1777 970.016 94.1777C969.186 94.1777 968.543 94.0465 968.086 93.7842C967.629 93.5218 967.307 93.179 967.121 92.7559C966.935 92.3242 966.842 91.4229 966.842 90.0518V82.2949H965.166V80.5176H966.842V77.1787L969.114 75.8076V80.5176H971.412V82.2949H969.114V90.1787C969.114 90.8304 969.152 91.2493 969.229 91.4355C969.313 91.6217 969.444 91.7699 969.622 91.8799C969.808 91.9899 970.071 92.0449 970.409 92.0449C970.663 92.0449 970.997 92.0153 971.412 91.9561ZM973.659 99.167V80.5176H975.741V82.2695C976.232 81.584 976.786 81.0719 977.404 80.7334C978.022 80.3864 978.771 80.2129 979.651 80.2129C980.802 80.2129 981.818 80.5091 982.698 81.1016C983.578 81.694 984.243 82.5319 984.691 83.6152C985.14 84.6901 985.364 85.8708 985.364 87.1572C985.364 88.5368 985.115 89.7809 984.615 90.8896C984.124 91.9899 983.405 92.8363 982.457 93.4287C981.518 94.0127 980.527 94.3047 979.486 94.3047C978.725 94.3047 978.039 94.1439 977.43 93.8223C976.829 93.5007 976.334 93.0944 975.944 92.6035V99.167H973.659ZM975.729 87.335C975.729 89.07 976.08 90.3522 976.782 91.1816C977.485 92.0111 978.335 92.4258 979.334 92.4258C980.35 92.4258 981.217 91.9984 981.937 91.1436C982.664 90.2803 983.028 88.9473 983.028 87.1445C983.028 85.4264 982.673 84.14 981.962 83.2852C981.259 82.4303 980.417 82.0029 979.436 82.0029C978.462 82.0029 977.599 82.46 976.846 83.374C976.101 84.2796 975.729 85.5999 975.729 87.335ZM996.968 94V92.0195C995.918 93.543 994.492 94.3047 992.689 94.3047C991.894 94.3047 991.149 94.1523 990.455 93.8477C989.77 93.543 989.257 93.1621 988.919 92.7051C988.589 92.2396 988.356 91.6725 988.221 91.0039C988.128 90.5553 988.081 89.8444 988.081 88.8711V80.5176H990.366V87.9951C990.366 89.1885 990.413 89.9925 990.506 90.4072C990.65 91.0081 990.954 91.4821 991.42 91.8291C991.885 92.1676 992.461 92.3369 993.146 92.3369C993.832 92.3369 994.475 92.1634 995.076 91.8164C995.677 91.4609 996.1 90.9827 996.346 90.3818C996.6 89.7725 996.727 88.8923 996.727 87.7412V80.5176H999.012V94H996.968ZM1007.59 91.9561L1007.92 93.9746C1007.28 94.11 1006.71 94.1777 1006.2 94.1777C1005.37 94.1777 1004.72 94.0465 1004.27 93.7842C1003.81 93.5218 1003.49 93.179 1003.3 92.7559C1003.12 92.3242 1003.02 91.4229 1003.02 90.0518V82.2949H1001.35V80.5176H1003.02V77.1787L1005.3 75.8076V80.5176H1007.59V82.2949H1005.3V90.1787C1005.3 90.8304 1005.33 91.2493 1005.41 91.4355C1005.49 91.6217 1005.63 91.7699 1005.8 91.8799C1005.99 91.9899 1006.25 92.0449 1006.59 92.0449C1006.84 92.0449 1007.18 92.0153 1007.59 91.9561Z" fill="#343434"/>
<rect id="Rectangle 56_2" x="919" y="61" width="102" height="48" rx="11" stroke="#343434" stroke-width="2"/>
</g>
<path id="Line 3" d="M912 85L892 73.453V96.547L912 85ZM110 87L894 87V83L110 83V87Z" fill="#343434"/>
</g>
</g>
<g id="Group 49">
<g id="Group 40_2">
<path id="Input_2" d="M25.4248 255V236.389H27.8877V255H25.4248ZM31.9502 255V241.518H34.0068V243.435C34.9971 241.953 36.4274 241.213 38.2979 241.213C39.1104 241.213 39.8551 241.361 40.5322 241.657C41.2178 241.945 41.7298 242.326 42.0684 242.8C42.4069 243.274 42.6439 243.837 42.7793 244.488C42.8639 244.911 42.9062 245.652 42.9062 246.71V255H40.6211V246.799C40.6211 245.868 40.5322 245.174 40.3545 244.717C40.1768 244.251 39.8594 243.883 39.4023 243.612C38.9538 243.333 38.4248 243.193 37.8154 243.193C36.8421 243.193 36 243.502 35.2891 244.12C34.5866 244.738 34.2354 245.91 34.2354 247.637V255H31.9502ZM46.4229 260.167V241.518H48.5049V243.27C48.9958 242.584 49.5501 242.072 50.168 241.733C50.7858 241.386 51.5348 241.213 52.415 241.213C53.5661 241.213 54.5817 241.509 55.4619 242.102C56.3421 242.694 57.0065 243.532 57.4551 244.615C57.9036 245.69 58.1279 246.871 58.1279 248.157C58.1279 249.537 57.8783 250.781 57.3789 251.89C56.888 252.99 56.1686 253.836 55.2207 254.429C54.2812 255.013 53.291 255.305 52.25 255.305C51.4883 255.305 50.8027 255.144 50.1934 254.822C49.5924 254.501 49.0973 254.094 48.708 253.604V260.167H46.4229ZM48.4922 248.335C48.4922 250.07 48.8434 251.352 49.5459 252.182C50.2484 253.011 51.099 253.426 52.0977 253.426C53.1133 253.426 53.9808 252.998 54.7002 252.144C55.4281 251.28 55.792 249.947 55.792 248.145C55.792 246.426 55.4365 245.14 54.7256 244.285C54.0231 243.43 53.181 243.003 52.1992 243.003C51.2259 243.003 50.3626 243.46 49.6094 244.374C48.8646 245.28 48.4922 246.6 48.4922 248.335ZM69.7314 255V253.02C68.682 254.543 67.2559 255.305 65.4531 255.305C64.6576 255.305 63.9128 255.152 63.2188 254.848C62.5332 254.543 62.0212 254.162 61.6826 253.705C61.3525 253.24 61.1198 252.673 60.9844 252.004C60.8913 251.555 60.8447 250.844 60.8447 249.871V241.518H63.1299V248.995C63.1299 250.188 63.1764 250.993 63.2695 251.407C63.4134 252.008 63.7181 252.482 64.1836 252.829C64.6491 253.168 65.2246 253.337 65.9102 253.337C66.5957 253.337 67.2389 253.163 67.8398 252.816C68.4408 252.461 68.8639 251.983 69.1094 251.382C69.3633 250.772 69.4902 249.892 69.4902 248.741V241.518H71.7754V255H69.7314ZM80.3574 252.956L80.6875 254.975C80.0443 255.11 79.4688 255.178 78.9609 255.178C78.1315 255.178 77.4883 255.047 77.0312 254.784C76.5742 254.522 76.2526 254.179 76.0664 253.756C75.8802 253.324 75.7871 252.423 75.7871 251.052V243.295H74.1113V241.518H75.7871V238.179L78.0596 236.808V241.518H80.3574V243.295H78.0596V251.179C78.0596 251.83 78.0977 252.249 78.1738 252.436C78.2585 252.622 78.3896 252.77 78.5674 252.88C78.7536 252.99 79.016 253.045 79.3545 253.045C79.6084 253.045 79.9427 253.015 80.3574 252.956Z" fill="#343434"/>
<rect id="Rectangle 56_3" x="1.5" y="222.5" width="101" height="47" rx="10.5" stroke="#343434" stroke-width="3"/>
</g>
<g id="Group 41_2">
<path id="Output_2" d="M931.257 245.936C931.257 242.846 932.086 240.43 933.745 238.687C935.404 236.935 937.545 236.059 940.169 236.059C941.887 236.059 943.436 236.469 944.815 237.29C946.195 238.111 947.244 239.258 947.964 240.73C948.692 242.195 949.056 243.858 949.056 245.72C949.056 247.607 948.675 249.296 947.913 250.785C947.151 252.275 946.072 253.405 944.676 254.175C943.279 254.937 941.773 255.317 940.156 255.317C938.404 255.317 936.839 254.894 935.459 254.048C934.079 253.201 933.034 252.046 932.323 250.582C931.612 249.118 931.257 247.569 931.257 245.936ZM933.796 245.974C933.796 248.216 934.397 249.985 935.599 251.28C936.809 252.567 938.324 253.21 940.144 253.21C941.997 253.21 943.521 252.558 944.714 251.255C945.916 249.951 946.517 248.102 946.517 245.707C946.517 244.192 946.258 242.872 945.742 241.746C945.234 240.612 944.485 239.736 943.495 239.118C942.513 238.492 941.409 238.179 940.182 238.179C938.438 238.179 936.936 238.78 935.675 239.981C934.422 241.175 933.796 243.172 933.796 245.974ZM960.786 255V253.02C959.737 254.543 958.311 255.305 956.508 255.305C955.712 255.305 954.967 255.152 954.273 254.848C953.588 254.543 953.076 254.162 952.737 253.705C952.407 253.24 952.174 252.673 952.039 252.004C951.946 251.555 951.899 250.844 951.899 249.871V241.518H954.185V248.995C954.185 250.188 954.231 250.993 954.324 251.407C954.468 252.008 954.773 252.482 955.238 252.829C955.704 253.168 956.279 253.337 956.965 253.337C957.65 253.337 958.294 253.163 958.895 252.816C959.495 252.461 959.919 251.983 960.164 251.382C960.418 250.772 960.545 249.892 960.545 248.741V241.518H962.83V255H960.786ZM971.412 252.956L971.742 254.975C971.099 255.11 970.523 255.178 970.016 255.178C969.186 255.178 968.543 255.047 968.086 254.784C967.629 254.522 967.307 254.179 967.121 253.756C966.935 253.324 966.842 252.423 966.842 251.052V243.295H965.166V241.518H966.842V238.179L969.114 236.808V241.518H971.412V243.295H969.114V251.179C969.114 251.83 969.152 252.249 969.229 252.436C969.313 252.622 969.444 252.77 969.622 252.88C969.808 252.99 970.071 253.045 970.409 253.045C970.663 253.045 970.997 253.015 971.412 252.956ZM973.659 260.167V241.518H975.741V243.27C976.232 242.584 976.786 242.072 977.404 241.733C978.022 241.386 978.771 241.213 979.651 241.213C980.802 241.213 981.818 241.509 982.698 242.102C983.578 242.694 984.243 243.532 984.691 244.615C985.14 245.69 985.364 246.871 985.364 248.157C985.364 249.537 985.115 250.781 984.615 251.89C984.124 252.99 983.405 253.836 982.457 254.429C981.518 255.013 980.527 255.305 979.486 255.305C978.725 255.305 978.039 255.144 977.43 254.822C976.829 254.501 976.334 254.094 975.944 253.604V260.167H973.659ZM975.729 248.335C975.729 250.07 976.08 251.352 976.782 252.182C977.485 253.011 978.335 253.426 979.334 253.426C980.35 253.426 981.217 252.998 981.937 252.144C982.664 251.28 983.028 249.947 983.028 248.145C983.028 246.426 982.673 245.14 981.962 244.285C981.259 243.43 980.417 243.003 979.436 243.003C978.462 243.003 977.599 243.46 976.846 244.374C976.101 245.28 975.729 246.6 975.729 248.335ZM996.968 255V253.02C995.918 254.543 994.492 255.305 992.689 255.305C991.894 255.305 991.149 255.152 990.455 254.848C989.77 254.543 989.257 254.162 988.919 253.705C988.589 253.24 988.356 252.673 988.221 252.004C988.128 251.555 988.081 250.844 988.081 249.871V241.518H990.366V248.995C990.366 250.188 990.413 250.993 990.506 251.407C990.65 252.008 990.954 252.482 991.42 252.829C991.885 253.168 992.461 253.337 993.146 253.337C993.832 253.337 994.475 253.163 995.076 252.816C995.677 252.461 996.1 251.983 996.346 251.382C996.6 250.772 996.727 249.892 996.727 248.741V241.518H999.012V255H996.968ZM1007.59 252.956L1007.92 254.975C1007.28 255.11 1006.71 255.178 1006.2 255.178C1005.37 255.178 1004.72 255.047 1004.27 254.784C1003.81 254.522 1003.49 254.179 1003.3 253.756C1003.12 253.324 1003.02 252.423 1003.02 251.052V243.295H1001.35V241.518H1003.02V238.179L1005.3 236.808V241.518H1007.59V243.295H1005.3V251.179C1005.3 251.83 1005.33 252.249 1005.41 252.436C1005.49 252.622 1005.63 252.77 1005.8 252.88C1005.99 252.99 1006.25 253.045 1006.59 253.045C1006.84 253.045 1007.18 253.015 1007.59 252.956Z" fill="#343434"/>
<rect id="Rectangle 56_4" x="919.5" y="222.5" width="101" height="47" rx="10.5" stroke="#343434" stroke-width="3"/>
</g>
<g id="Group 42_2">
<path id="Thought" d="M293.741 255V238.585H287.609V236.389H302.361V238.585H296.204V255H293.741ZM304.608 255V236.389H306.894V243.066C307.96 241.831 309.306 241.213 310.931 241.213C311.929 241.213 312.797 241.412 313.533 241.81C314.27 242.199 314.794 242.741 315.107 243.435C315.429 244.129 315.59 245.136 315.59 246.456V255H313.305V246.456C313.305 245.313 313.055 244.484 312.556 243.968C312.065 243.443 311.367 243.181 310.461 243.181C309.784 243.181 309.145 243.358 308.544 243.714C307.951 244.061 307.528 244.535 307.274 245.136C307.021 245.737 306.894 246.566 306.894 247.624V255H304.608ZM318.23 248.259C318.23 245.762 318.924 243.913 320.312 242.711C321.472 241.712 322.885 241.213 324.553 241.213C326.406 241.213 327.921 241.822 329.098 243.041C330.274 244.251 330.862 245.927 330.862 248.068C330.862 249.803 330.6 251.17 330.075 252.169C329.559 253.159 328.801 253.929 327.803 254.479C326.812 255.03 325.729 255.305 324.553 255.305C322.665 255.305 321.138 254.7 319.97 253.489C318.81 252.279 318.23 250.535 318.23 248.259ZM320.579 248.259C320.579 249.985 320.956 251.28 321.709 252.144C322.462 252.998 323.41 253.426 324.553 253.426C325.687 253.426 326.631 252.994 327.384 252.131C328.137 251.268 328.514 249.951 328.514 248.183C328.514 246.515 328.133 245.254 327.371 244.399C326.618 243.536 325.678 243.104 324.553 243.104C323.41 243.104 322.462 243.532 321.709 244.387C320.956 245.242 320.579 246.532 320.579 248.259ZM342.39 255V253.02C341.34 254.543 339.914 255.305 338.111 255.305C337.316 255.305 336.571 255.152 335.877 254.848C335.191 254.543 334.679 254.162 334.341 253.705C334.011 253.24 333.778 252.673 333.643 252.004C333.549 251.555 333.503 250.844 333.503 249.871V241.518H335.788V248.995C335.788 250.188 335.835 250.993 335.928 251.407C336.072 252.008 336.376 252.482 336.842 252.829C337.307 253.168 337.883 253.337 338.568 253.337C339.254 253.337 339.897 253.163 340.498 252.816C341.099 252.461 341.522 251.983 341.768 251.382C342.021 250.772 342.148 249.892 342.148 248.741V241.518H344.434V255H342.39ZM347.607 256.117L349.829 256.447C349.922 257.133 350.18 257.632 350.604 257.945C351.171 258.368 351.945 258.58 352.927 258.58C353.985 258.58 354.801 258.368 355.377 257.945C355.952 257.522 356.342 256.93 356.545 256.168C356.663 255.702 356.718 254.725 356.71 253.235C355.711 254.412 354.467 255 352.978 255C351.124 255 349.689 254.331 348.674 252.994C347.658 251.657 347.15 250.053 347.15 248.183C347.15 246.896 347.383 245.711 347.849 244.628C348.314 243.536 348.987 242.694 349.867 242.102C350.756 241.509 351.797 241.213 352.99 241.213C354.581 241.213 355.893 241.856 356.926 243.143V241.518H359.033V253.172C359.033 255.271 358.817 256.756 358.386 257.628C357.963 258.508 357.285 259.202 356.354 259.71C355.432 260.218 354.294 260.472 352.939 260.472C351.331 260.472 350.032 260.108 349.042 259.38C348.052 258.66 347.574 257.573 347.607 256.117ZM349.499 248.018C349.499 249.786 349.85 251.077 350.553 251.89C351.255 252.702 352.135 253.108 353.193 253.108C354.243 253.108 355.123 252.706 355.834 251.902C356.545 251.09 356.9 249.82 356.9 248.094C356.9 246.443 356.532 245.199 355.796 244.361C355.068 243.523 354.188 243.104 353.155 243.104C352.14 243.104 351.276 243.519 350.565 244.349C349.854 245.17 349.499 246.393 349.499 248.018ZM362.499 255V236.389H364.784V243.066C365.851 241.831 367.196 241.213 368.821 241.213C369.82 241.213 370.688 241.412 371.424 241.81C372.16 242.199 372.685 242.741 372.998 243.435C373.32 244.129 373.48 245.136 373.48 246.456V255H371.195V246.456C371.195 245.313 370.946 244.484 370.446 243.968C369.955 243.443 369.257 243.181 368.352 243.181C367.674 243.181 367.035 243.358 366.435 243.714C365.842 244.061 365.419 244.535 365.165 245.136C364.911 245.737 364.784 246.566 364.784 247.624V255H362.499ZM381.961 252.956L382.291 254.975C381.648 255.11 381.072 255.178 380.564 255.178C379.735 255.178 379.092 255.047 378.635 254.784C378.178 254.522 377.856 254.179 377.67 253.756C377.484 253.324 377.391 252.423 377.391 251.052V243.295H375.715V241.518H377.391V238.179L379.663 236.808V241.518H381.961V243.295H379.663V251.179C379.663 251.83 379.701 252.249 379.777 252.436C379.862 252.622 379.993 252.77 380.171 252.88C380.357 252.99 380.619 253.045 380.958 253.045C381.212 253.045 381.546 253.015 381.961 252.956Z" fill="#343434"/>
<rect id="Rectangle 56_5" x="240.5" y="222.5" width="188" height="47" rx="10.5" stroke="#FF8C06" stroke-width="3" stroke-dasharray="8 8"/>
</g>
<g id="Group 44">
<path id="Thought_2" d="M617.741 255V238.585H611.609V236.389H626.361V238.585H620.204V255H617.741ZM628.608 255V236.389H630.894V243.066C631.96 241.831 633.306 241.213 634.931 241.213C635.929 241.213 636.797 241.412 637.533 241.81C638.27 242.199 638.794 242.741 639.107 243.435C639.429 244.129 639.59 245.136 639.59 246.456V255H637.305V246.456C637.305 245.313 637.055 244.484 636.556 243.968C636.065 243.443 635.367 243.181 634.461 243.181C633.784 243.181 633.145 243.358 632.544 243.714C631.951 244.061 631.528 244.535 631.274 245.136C631.021 245.737 630.894 246.566 630.894 247.624V255H628.608ZM642.23 248.259C642.23 245.762 642.924 243.913 644.312 242.711C645.472 241.712 646.885 241.213 648.553 241.213C650.406 241.213 651.921 241.822 653.098 243.041C654.274 244.251 654.862 245.927 654.862 248.068C654.862 249.803 654.6 251.17 654.075 252.169C653.559 253.159 652.801 253.929 651.803 254.479C650.812 255.03 649.729 255.305 648.553 255.305C646.665 255.305 645.138 254.7 643.97 253.489C642.81 252.279 642.23 250.535 642.23 248.259ZM644.579 248.259C644.579 249.985 644.956 251.28 645.709 252.144C646.462 252.998 647.41 253.426 648.553 253.426C649.687 253.426 650.631 252.994 651.384 252.131C652.137 251.268 652.514 249.951 652.514 248.183C652.514 246.515 652.133 245.254 651.371 244.399C650.618 243.536 649.678 243.104 648.553 243.104C647.41 243.104 646.462 243.532 645.709 244.387C644.956 245.242 644.579 246.532 644.579 248.259ZM666.39 255V253.02C665.34 254.543 663.914 255.305 662.111 255.305C661.316 255.305 660.571 255.152 659.877 254.848C659.191 254.543 658.679 254.162 658.341 253.705C658.011 253.24 657.778 252.673 657.643 252.004C657.549 251.555 657.503 250.844 657.503 249.871V241.518H659.788V248.995C659.788 250.188 659.835 250.993 659.928 251.407C660.072 252.008 660.376 252.482 660.842 252.829C661.307 253.168 661.883 253.337 662.568 253.337C663.254 253.337 663.897 253.163 664.498 252.816C665.099 252.461 665.522 251.983 665.768 251.382C666.021 250.772 666.148 249.892 666.148 248.741V241.518H668.434V255H666.39ZM671.607 256.117L673.829 256.447C673.922 257.133 674.18 257.632 674.604 257.945C675.171 258.368 675.945 258.58 676.927 258.58C677.985 258.58 678.801 258.368 679.377 257.945C679.952 257.522 680.342 256.93 680.545 256.168C680.663 255.702 680.718 254.725 680.71 253.235C679.711 254.412 678.467 255 676.978 255C675.124 255 673.689 254.331 672.674 252.994C671.658 251.657 671.15 250.053 671.15 248.183C671.15 246.896 671.383 245.711 671.849 244.628C672.314 243.536 672.987 242.694 673.867 242.102C674.756 241.509 675.797 241.213 676.99 241.213C678.581 241.213 679.893 241.856 680.926 243.143V241.518H683.033V253.172C683.033 255.271 682.817 256.756 682.386 257.628C681.963 258.508 681.285 259.202 680.354 259.71C679.432 260.218 678.294 260.472 676.939 260.472C675.331 260.472 674.032 260.108 673.042 259.38C672.052 258.66 671.574 257.573 671.607 256.117ZM673.499 248.018C673.499 249.786 673.85 251.077 674.553 251.89C675.255 252.702 676.135 253.108 677.193 253.108C678.243 253.108 679.123 252.706 679.834 251.902C680.545 251.09 680.9 249.82 680.9 248.094C680.9 246.443 680.532 245.199 679.796 244.361C679.068 243.523 678.188 243.104 677.155 243.104C676.14 243.104 675.276 243.519 674.565 244.349C673.854 245.17 673.499 246.393 673.499 248.018ZM686.499 255V236.389H688.784V243.066C689.851 241.831 691.196 241.213 692.821 241.213C693.82 241.213 694.688 241.412 695.424 241.81C696.16 242.199 696.685 242.741 696.998 243.435C697.32 244.129 697.48 245.136 697.48 246.456V255H695.195V246.456C695.195 245.313 694.946 244.484 694.446 243.968C693.955 243.443 693.257 243.181 692.352 243.181C691.674 243.181 691.035 243.358 690.435 243.714C689.842 244.061 689.419 244.535 689.165 245.136C688.911 245.737 688.784 246.566 688.784 247.624V255H686.499ZM705.961 252.956L706.291 254.975C705.648 255.11 705.072 255.178 704.564 255.178C703.735 255.178 703.092 255.047 702.635 254.784C702.178 254.522 701.856 254.179 701.67 253.756C701.484 253.324 701.391 252.423 701.391 251.052V243.295H699.715V241.518H701.391V238.179L703.663 236.808V241.518H705.961V243.295H703.663V251.179C703.663 251.83 703.701 252.249 703.777 252.436C703.862 252.622 703.993 252.77 704.171 252.88C704.357 252.99 704.619 253.045 704.958 253.045C705.212 253.045 705.546 253.015 705.961 252.956Z" fill="#343434"/>
<rect id="Rectangle 56_6" x="564.5" y="222.5" width="188" height="47" rx="10.5" stroke="#FF8C06" stroke-width="3" stroke-dasharray="8 8"/>
</g>
<path id="Line 3_2" d="M235 246L215 234.453V257.547L235 246ZM108 248L217 248V244L108 244V248Z" fill="#343434"/>
<path id="Line 4" d="M560 246L540 234.453V257.547L560 246ZM433 248L542 248V244L433 244V248Z" fill="#343434"/>
<path id="Line 5" d="M913 246L893 234.453V257.547L913 246ZM786 248L895 248V244L786 244V248Z" fill="#343434"/>
<path id="..." d="M758.153 248V243.884H762.27V248H758.153ZM766.503 248V243.884H770.619V248H766.503ZM774.853 248V243.884H778.969V248H774.853Z" fill="black"/>
<path id="Chain-of-Thought" d="M415.8 178.157L419.443 179.312C418.885 181.344 417.954 182.854 416.65 183.845C415.355 184.826 413.709 185.317 411.712 185.317C409.241 185.317 407.209 184.475 405.618 182.791C404.027 181.098 403.231 178.788 403.231 175.859C403.231 172.762 404.031 170.358 405.631 168.648C407.23 166.93 409.334 166.071 411.94 166.071C414.217 166.071 416.066 166.744 417.488 168.09C418.335 168.885 418.969 170.028 419.393 171.518L415.673 172.406C415.453 171.441 414.992 170.68 414.289 170.121C413.595 169.562 412.749 169.283 411.75 169.283C410.37 169.283 409.249 169.778 408.386 170.769C407.531 171.759 407.104 173.363 407.104 175.58C407.104 177.933 407.527 179.609 408.373 180.607C409.219 181.606 410.32 182.105 411.674 182.105C412.673 182.105 413.532 181.788 414.251 181.153C414.97 180.519 415.487 179.52 415.8 178.157ZM426.21 166.389V173.231C427.361 171.886 428.736 171.213 430.336 171.213C431.157 171.213 431.897 171.365 432.558 171.67C433.218 171.975 433.713 172.364 434.043 172.838C434.382 173.312 434.61 173.837 434.729 174.412C434.855 174.988 434.919 175.881 434.919 177.091V185H431.352V177.878C431.352 176.465 431.284 175.567 431.148 175.187C431.013 174.806 430.772 174.505 430.425 174.285C430.086 174.057 429.659 173.942 429.143 173.942C428.55 173.942 428.021 174.086 427.556 174.374C427.09 174.662 426.747 175.098 426.527 175.682C426.316 176.257 426.21 177.112 426.21 178.246V185H422.643V166.389H426.21ZM441.216 175.631L437.979 175.047C438.342 173.743 438.969 172.779 439.857 172.152C440.746 171.526 442.066 171.213 443.818 171.213C445.41 171.213 446.594 171.403 447.373 171.784C448.152 172.157 448.698 172.635 449.011 173.219C449.332 173.794 449.493 174.856 449.493 176.405L449.455 180.569C449.455 181.754 449.51 182.63 449.62 183.197C449.739 183.756 449.954 184.357 450.268 185H446.738C446.645 184.763 446.531 184.412 446.396 183.946C446.336 183.735 446.294 183.595 446.269 183.527C445.659 184.12 445.007 184.564 444.313 184.86C443.619 185.157 442.879 185.305 442.092 185.305C440.704 185.305 439.608 184.928 438.804 184.175C438.008 183.422 437.61 182.469 437.61 181.318C437.61 180.557 437.792 179.88 438.156 179.287C438.52 178.686 439.028 178.229 439.68 177.916C440.34 177.594 441.288 177.315 442.523 177.078C444.191 176.765 445.346 176.473 445.989 176.202V175.847C445.989 175.161 445.82 174.674 445.481 174.387C445.143 174.09 444.504 173.942 443.564 173.942C442.93 173.942 442.435 174.069 442.079 174.323C441.724 174.569 441.436 175.005 441.216 175.631ZM445.989 178.525C445.532 178.678 444.809 178.86 443.818 179.071C442.828 179.283 442.181 179.49 441.876 179.693C441.41 180.023 441.178 180.442 441.178 180.95C441.178 181.45 441.364 181.881 441.736 182.245C442.109 182.609 442.583 182.791 443.158 182.791C443.801 182.791 444.415 182.579 444.999 182.156C445.431 181.835 445.714 181.441 445.85 180.976C445.943 180.671 445.989 180.091 445.989 179.236V178.525ZM453.022 169.689V166.389H456.59V169.689H453.022ZM453.022 185V171.518H456.59V185H453.022ZM472.522 185H468.955V178.119C468.955 176.663 468.879 175.724 468.727 175.301C468.574 174.869 468.325 174.535 467.978 174.298C467.639 174.061 467.229 173.942 466.746 173.942C466.128 173.942 465.574 174.112 465.083 174.45C464.592 174.789 464.254 175.237 464.067 175.796C463.89 176.354 463.801 177.387 463.801 178.894V185H460.233V171.518H463.547V173.498C464.723 171.975 466.204 171.213 467.99 171.213C468.777 171.213 469.497 171.357 470.148 171.645C470.8 171.924 471.291 172.284 471.621 172.724C471.96 173.164 472.192 173.663 472.319 174.222C472.455 174.78 472.522 175.58 472.522 176.621V185ZM475.747 180.036V176.469H482.755V180.036H475.747ZM483.986 178.068C483.986 176.883 484.278 175.737 484.862 174.628C485.446 173.519 486.271 172.673 487.338 172.089C488.413 171.505 489.61 171.213 490.931 171.213C492.97 171.213 494.642 171.877 495.945 173.206C497.249 174.526 497.9 176.198 497.9 178.221C497.9 180.26 497.24 181.953 495.92 183.299C494.608 184.636 492.953 185.305 490.956 185.305C489.72 185.305 488.54 185.025 487.414 184.467C486.297 183.908 485.446 183.091 484.862 182.017C484.278 180.933 483.986 179.617 483.986 178.068ZM487.643 178.259C487.643 179.596 487.96 180.62 488.595 181.331C489.229 182.042 490.012 182.397 490.943 182.397C491.874 182.397 492.653 182.042 493.279 181.331C493.914 180.62 494.231 179.588 494.231 178.233C494.231 176.913 493.914 175.897 493.279 175.187C492.653 174.476 491.874 174.12 490.943 174.12C490.012 174.12 489.229 174.476 488.595 175.187C487.96 175.897 487.643 176.922 487.643 178.259ZM499.145 171.518H501.125V170.502C501.125 169.368 501.243 168.521 501.48 167.963C501.726 167.404 502.17 166.951 502.813 166.604C503.465 166.249 504.286 166.071 505.276 166.071C506.292 166.071 507.286 166.224 508.26 166.528L507.777 169.017C507.21 168.881 506.664 168.813 506.14 168.813C505.623 168.813 505.251 168.936 505.022 169.182C504.802 169.419 504.692 169.88 504.692 170.565V171.518H507.358V174.323H504.692V185H501.125V174.323H499.145V171.518ZM508.958 180.036V176.469H515.966V180.036H508.958ZM522.237 185V169.537H516.715V166.389H531.505V169.537H525.995V185H522.237ZM537.472 166.389V173.231C538.623 171.886 539.998 171.213 541.598 171.213C542.419 171.213 543.159 171.365 543.819 171.67C544.479 171.975 544.975 172.364 545.305 172.838C545.643 173.312 545.872 173.837 545.99 174.412C546.117 174.988 546.181 175.881 546.181 177.091V185H542.613V177.878C542.613 176.465 542.546 175.567 542.41 175.187C542.275 174.806 542.034 174.505 541.687 174.285C541.348 174.057 540.921 173.942 540.404 173.942C539.812 173.942 539.283 174.086 538.817 174.374C538.352 174.662 538.009 175.098 537.789 175.682C537.577 176.257 537.472 177.112 537.472 178.246V185H533.904V166.389H537.472ZM548.986 178.068C548.986 176.883 549.278 175.737 549.862 174.628C550.446 173.519 551.271 172.673 552.338 172.089C553.413 171.505 554.61 171.213 555.931 171.213C557.97 171.213 559.642 171.877 560.945 173.206C562.249 174.526 562.9 176.198 562.9 178.221C562.9 180.26 562.24 181.953 560.92 183.299C559.608 184.636 557.953 185.305 555.956 185.305C554.72 185.305 553.54 185.025 552.414 184.467C551.297 183.908 550.446 183.091 549.862 182.017C549.278 180.933 548.986 179.617 548.986 178.068ZM552.643 178.259C552.643 179.596 552.96 180.62 553.595 181.331C554.229 182.042 555.012 182.397 555.943 182.397C556.874 182.397 557.653 182.042 558.279 181.331C558.914 180.62 559.231 179.588 559.231 178.233C559.231 176.913 558.914 175.897 558.279 175.187C557.653 174.476 556.874 174.12 555.943 174.12C555.012 174.12 554.229 174.476 553.595 175.187C552.96 175.897 552.643 176.922 552.643 178.259ZM574.58 185V182.981C574.089 183.701 573.442 184.268 572.638 184.683C571.842 185.097 571 185.305 570.111 185.305C569.206 185.305 568.393 185.106 567.674 184.708C566.954 184.31 566.434 183.752 566.112 183.032C565.791 182.313 565.63 181.318 565.63 180.049V171.518H569.197V177.713C569.197 179.609 569.261 180.772 569.388 181.204C569.523 181.627 569.764 181.966 570.111 182.22C570.458 182.465 570.898 182.588 571.432 182.588C572.041 182.588 572.587 182.423 573.069 182.093C573.552 181.754 573.882 181.34 574.06 180.849C574.237 180.349 574.326 179.135 574.326 177.205V171.518H577.894V185H574.58ZM581.271 185.889L585.346 186.384C585.413 186.858 585.57 187.184 585.815 187.361C586.154 187.615 586.687 187.742 587.415 187.742C588.346 187.742 589.044 187.603 589.51 187.323C589.823 187.137 590.06 186.837 590.221 186.422C590.331 186.126 590.386 185.58 590.386 184.784V182.816C589.319 184.272 587.974 185 586.349 185C584.537 185 583.103 184.234 582.045 182.702C581.215 181.492 580.801 179.985 580.801 178.183C580.801 175.923 581.342 174.196 582.426 173.003C583.518 171.81 584.872 171.213 586.488 171.213C588.156 171.213 589.531 171.945 590.614 173.409V171.518H593.953V183.616C593.953 185.207 593.822 186.396 593.56 187.184C593.297 187.971 592.929 188.589 592.455 189.037C591.981 189.486 591.346 189.837 590.551 190.091C589.764 190.345 588.765 190.472 587.555 190.472C585.27 190.472 583.649 190.078 582.692 189.291C581.736 188.512 581.258 187.522 581.258 186.32C581.258 186.202 581.262 186.058 581.271 185.889ZM584.457 177.979C584.457 179.41 584.732 180.459 585.282 181.128C585.841 181.788 586.526 182.118 587.339 182.118C588.211 182.118 588.947 181.78 589.548 181.103C590.149 180.417 590.449 179.406 590.449 178.068C590.449 176.672 590.161 175.635 589.586 174.958C589.01 174.281 588.283 173.942 587.402 173.942C586.548 173.942 585.841 174.277 585.282 174.945C584.732 175.605 584.457 176.617 584.457 177.979ZM601.05 166.389V173.231C602.201 171.886 603.576 171.213 605.176 171.213C605.997 171.213 606.737 171.365 607.397 171.67C608.058 171.975 608.553 172.364 608.883 172.838C609.221 173.312 609.45 173.837 609.568 174.412C609.695 174.988 609.759 175.881 609.759 177.091V185H606.191V177.878C606.191 176.465 606.124 175.567 605.988 175.187C605.853 174.806 605.612 174.505 605.265 174.285C604.926 174.057 604.499 173.942 603.982 173.942C603.39 173.942 602.861 174.086 602.396 174.374C601.93 174.662 601.587 175.098 601.367 175.682C601.156 176.257 601.05 177.112 601.05 178.246V185H597.482V166.389H601.05ZM619.572 171.518V174.361H617.135V179.795C617.135 180.895 617.156 181.538 617.198 181.725C617.249 181.902 617.355 182.05 617.516 182.169C617.685 182.287 617.888 182.347 618.125 182.347C618.455 182.347 618.933 182.232 619.56 182.004L619.864 184.771C619.035 185.127 618.095 185.305 617.046 185.305C616.403 185.305 615.823 185.199 615.307 184.987C614.79 184.767 614.41 184.488 614.164 184.149C613.927 183.802 613.762 183.337 613.669 182.753C613.593 182.338 613.555 181.5 613.555 180.239V174.361H611.917V171.518H613.555V168.839L617.135 166.757V171.518H619.572Z" fill="#343434"/>
</g>
<g id="Group 48">
<path id="Visualization-of-Thought" d="M365.64 363L358.987 344.389H363.062L367.772 358.163L372.33 344.389H376.316L369.651 363H365.64ZM377.726 347.689V344.389H381.293V347.689H377.726ZM377.726 363V349.518H381.293V363H377.726ZM383.705 359.153L387.285 358.607C387.438 359.301 387.746 359.83 388.212 360.194C388.677 360.55 389.329 360.728 390.167 360.728C391.09 360.728 391.784 360.558 392.249 360.22C392.562 359.983 392.719 359.665 392.719 359.268C392.719 358.997 392.634 358.772 392.465 358.595C392.287 358.425 391.889 358.269 391.271 358.125C388.394 357.49 386.57 356.91 385.8 356.386C384.733 355.658 384.2 354.646 384.2 353.352C384.2 352.184 384.661 351.202 385.584 350.406C386.507 349.611 387.937 349.213 389.875 349.213C391.72 349.213 393.091 349.513 393.988 350.114C394.885 350.715 395.503 351.604 395.842 352.78L392.478 353.402C392.334 352.878 392.059 352.476 391.652 352.196C391.255 351.917 390.683 351.777 389.938 351.777C388.999 351.777 388.326 351.909 387.92 352.171C387.649 352.357 387.514 352.598 387.514 352.895C387.514 353.148 387.632 353.364 387.869 353.542C388.191 353.779 389.299 354.113 391.195 354.545C393.1 354.977 394.428 355.506 395.182 356.132C395.926 356.767 396.299 357.651 396.299 358.785C396.299 360.021 395.783 361.083 394.75 361.972C393.717 362.86 392.19 363.305 390.167 363.305C388.33 363.305 386.875 362.932 385.8 362.188C384.733 361.443 384.035 360.431 383.705 359.153ZM408.309 363V360.981C407.818 361.701 407.17 362.268 406.366 362.683C405.571 363.097 404.729 363.305 403.84 363.305C402.934 363.305 402.122 363.106 401.402 362.708C400.683 362.31 400.162 361.752 399.841 361.032C399.519 360.313 399.358 359.318 399.358 358.049V349.518H402.926V355.713C402.926 357.609 402.989 358.772 403.116 359.204C403.252 359.627 403.493 359.966 403.84 360.22C404.187 360.465 404.627 360.588 405.16 360.588C405.77 360.588 406.315 360.423 406.798 360.093C407.28 359.754 407.61 359.34 407.788 358.849C407.966 358.349 408.055 357.135 408.055 355.205V349.518H411.622V363H408.309ZM417.995 353.631L414.758 353.047C415.122 351.743 415.748 350.779 416.637 350.152C417.525 349.526 418.846 349.213 420.598 349.213C422.189 349.213 423.374 349.403 424.152 349.784C424.931 350.157 425.477 350.635 425.79 351.219C426.112 351.794 426.272 352.856 426.272 354.405L426.234 358.569C426.234 359.754 426.289 360.63 426.399 361.197C426.518 361.756 426.734 362.357 427.047 363H423.518C423.424 362.763 423.31 362.412 423.175 361.946C423.116 361.735 423.073 361.595 423.048 361.527C422.438 362.12 421.787 362.564 421.093 362.86C420.399 363.157 419.658 363.305 418.871 363.305C417.483 363.305 416.387 362.928 415.583 362.175C414.787 361.422 414.39 360.469 414.39 359.318C414.39 358.557 414.572 357.88 414.936 357.287C415.299 356.686 415.807 356.229 416.459 355.916C417.119 355.594 418.067 355.315 419.303 355.078C420.97 354.765 422.125 354.473 422.769 354.202V353.847C422.769 353.161 422.599 352.674 422.261 352.387C421.922 352.09 421.283 351.942 420.344 351.942C419.709 351.942 419.214 352.069 418.858 352.323C418.503 352.569 418.215 353.005 417.995 353.631ZM422.769 356.525C422.312 356.678 421.588 356.86 420.598 357.071C419.607 357.283 418.96 357.49 418.655 357.693C418.19 358.023 417.957 358.442 417.957 358.95C417.957 359.45 418.143 359.881 418.516 360.245C418.888 360.609 419.362 360.791 419.938 360.791C420.581 360.791 421.194 360.579 421.778 360.156C422.21 359.835 422.493 359.441 422.629 358.976C422.722 358.671 422.769 358.091 422.769 357.236V356.525ZM429.802 363V344.389H433.369V363H429.802ZM437.038 347.689V344.389H440.605V347.689H437.038ZM437.038 363V349.518H440.605V363H437.038ZM442.84 363V360.22L447.893 354.418C448.722 353.47 449.336 352.797 449.733 352.399C449.319 352.425 448.773 352.442 448.096 352.45L443.335 352.476V349.518H454.481V352.044L449.327 357.985L447.512 359.953C448.502 359.894 449.116 359.864 449.353 359.864H454.875V363H442.84ZM459.94 353.631L456.703 353.047C457.067 351.743 457.693 350.779 458.582 350.152C459.471 349.526 460.791 349.213 462.543 349.213C464.134 349.213 465.319 349.403 466.098 349.784C466.876 350.157 467.422 350.635 467.735 351.219C468.057 351.794 468.218 352.856 468.218 354.405L468.18 358.569C468.18 359.754 468.235 360.63 468.345 361.197C468.463 361.756 468.679 362.357 468.992 363H465.463C465.37 362.763 465.256 362.412 465.12 361.946C465.061 361.735 465.019 361.595 464.993 361.527C464.384 362.12 463.732 362.564 463.038 362.86C462.344 363.157 461.604 363.305 460.816 363.305C459.428 363.305 458.332 362.928 457.528 362.175C456.733 361.422 456.335 360.469 456.335 359.318C456.335 358.557 456.517 357.88 456.881 357.287C457.245 356.686 457.753 356.229 458.404 355.916C459.064 355.594 460.012 355.315 461.248 355.078C462.915 354.765 464.071 354.473 464.714 354.202V353.847C464.714 353.161 464.545 352.674 464.206 352.387C463.868 352.09 463.229 351.942 462.289 351.942C461.654 351.942 461.159 352.069 460.804 352.323C460.448 352.569 460.16 353.005 459.94 353.631ZM464.714 356.525C464.257 356.678 463.533 356.86 462.543 357.071C461.553 357.283 460.905 357.49 460.601 357.693C460.135 358.023 459.902 358.442 459.902 358.95C459.902 359.45 460.089 359.881 460.461 360.245C460.833 360.609 461.307 360.791 461.883 360.791C462.526 360.791 463.14 360.579 463.724 360.156C464.155 359.835 464.439 359.441 464.574 358.976C464.667 358.671 464.714 358.091 464.714 357.236V356.525ZM477.93 349.518V352.361H475.492V357.795C475.492 358.895 475.513 359.538 475.556 359.725C475.606 359.902 475.712 360.05 475.873 360.169C476.042 360.287 476.245 360.347 476.482 360.347C476.812 360.347 477.291 360.232 477.917 360.004L478.222 362.771C477.392 363.127 476.453 363.305 475.403 363.305C474.76 363.305 474.18 363.199 473.664 362.987C473.148 362.767 472.767 362.488 472.521 362.149C472.285 361.802 472.119 361.337 472.026 360.753C471.95 360.338 471.912 359.5 471.912 358.239V352.361H470.274V349.518H471.912V346.839L475.492 344.757V349.518H477.93ZM480.405 347.689V344.389H483.973V347.689H480.405ZM480.405 363V349.518H483.973V363H480.405ZM486.816 356.068C486.816 354.883 487.108 353.737 487.692 352.628C488.276 351.519 489.102 350.673 490.168 350.089C491.243 349.505 492.44 349.213 493.761 349.213C495.8 349.213 497.472 349.877 498.775 351.206C500.079 352.526 500.73 354.198 500.73 356.221C500.73 358.26 500.07 359.953 498.75 361.299C497.438 362.636 495.784 363.305 493.786 363.305C492.55 363.305 491.37 363.025 490.244 362.467C489.127 361.908 488.276 361.091 487.692 360.017C487.108 358.933 486.816 357.617 486.816 356.068ZM490.473 356.259C490.473 357.596 490.79 358.62 491.425 359.331C492.06 360.042 492.842 360.397 493.773 360.397C494.704 360.397 495.483 360.042 496.109 359.331C496.744 358.62 497.062 357.588 497.062 356.233C497.062 354.913 496.744 353.897 496.109 353.187C495.483 352.476 494.704 352.12 493.773 352.12C492.842 352.12 492.06 352.476 491.425 353.187C490.79 353.897 490.473 354.922 490.473 356.259ZM515.8 363H512.232V356.119C512.232 354.663 512.156 353.724 512.004 353.301C511.852 352.869 511.602 352.535 511.255 352.298C510.916 352.061 510.506 351.942 510.023 351.942C509.406 351.942 508.851 352.112 508.36 352.45C507.869 352.789 507.531 353.237 507.345 353.796C507.167 354.354 507.078 355.387 507.078 356.894V363H503.511V349.518H506.824V351.498C508.001 349.975 509.482 349.213 511.268 349.213C512.055 349.213 512.774 349.357 513.426 349.645C514.077 349.924 514.568 350.284 514.898 350.724C515.237 351.164 515.47 351.663 515.597 352.222C515.732 352.78 515.8 353.58 515.8 354.621V363ZM519.024 358.036V354.469H526.032V358.036H519.024ZM527.264 356.068C527.264 354.883 527.556 353.737 528.14 352.628C528.724 351.519 529.549 350.673 530.615 350.089C531.69 349.505 532.888 349.213 534.208 349.213C536.248 349.213 537.919 349.877 539.223 351.206C540.526 352.526 541.178 354.198 541.178 356.221C541.178 358.26 540.518 359.953 539.197 361.299C537.885 362.636 536.231 363.305 534.233 363.305C532.998 363.305 531.817 363.025 530.691 362.467C529.574 361.908 528.724 361.091 528.14 360.017C527.556 358.933 527.264 357.617 527.264 356.068ZM530.92 356.259C530.92 357.596 531.237 358.62 531.872 359.331C532.507 360.042 533.29 360.397 534.221 360.397C535.152 360.397 535.93 360.042 536.557 359.331C537.191 358.62 537.509 357.588 537.509 356.233C537.509 354.913 537.191 353.897 536.557 353.187C535.93 352.476 535.152 352.12 534.221 352.12C533.29 352.12 532.507 352.476 531.872 353.187C531.237 353.897 530.92 354.922 530.92 356.259ZM542.422 349.518H544.402V348.502C544.402 347.368 544.521 346.521 544.758 345.963C545.003 345.404 545.448 344.951 546.091 344.604C546.743 344.249 547.563 344.071 548.554 344.071C549.569 344.071 550.564 344.224 551.537 344.528L551.055 347.017C550.488 346.881 549.942 346.813 549.417 346.813C548.901 346.813 548.528 346.936 548.3 347.182C548.08 347.419 547.97 347.88 547.97 348.565V349.518H550.636V352.323H547.97V363H544.402V352.323H542.422V349.518ZM552.235 358.036V354.469H559.243V358.036H552.235ZM565.515 363V347.537H559.992V344.389H574.782V347.537H569.272V363H565.515ZM580.749 344.389V351.231C581.9 349.886 583.275 349.213 584.875 349.213C585.696 349.213 586.437 349.365 587.097 349.67C587.757 349.975 588.252 350.364 588.582 350.838C588.921 351.312 589.149 351.837 589.268 352.412C589.395 352.988 589.458 353.881 589.458 355.091V363H585.891V355.878C585.891 354.465 585.823 353.567 585.688 353.187C585.552 352.806 585.311 352.505 584.964 352.285C584.625 352.057 584.198 351.942 583.682 351.942C583.089 351.942 582.56 352.086 582.095 352.374C581.629 352.662 581.286 353.098 581.066 353.682C580.855 354.257 580.749 355.112 580.749 356.246V363H577.182V344.389H580.749ZM592.264 356.068C592.264 354.883 592.556 353.737 593.14 352.628C593.724 351.519 594.549 350.673 595.615 350.089C596.69 349.505 597.888 349.213 599.208 349.213C601.248 349.213 602.919 349.877 604.223 351.206C605.526 352.526 606.178 354.198 606.178 356.221C606.178 358.26 605.518 359.953 604.197 361.299C602.885 362.636 601.231 363.305 599.233 363.305C597.998 363.305 596.817 363.025 595.691 362.467C594.574 361.908 593.724 361.091 593.14 360.017C592.556 358.933 592.264 357.617 592.264 356.068ZM595.92 356.259C595.92 357.596 596.237 358.62 596.872 359.331C597.507 360.042 598.29 360.397 599.221 360.397C600.152 360.397 600.93 360.042 601.557 359.331C602.191 358.62 602.509 357.588 602.509 356.233C602.509 354.913 602.191 353.897 601.557 353.187C600.93 352.476 600.152 352.12 599.221 352.12C598.29 352.12 597.507 352.476 596.872 353.187C596.237 353.897 595.92 354.922 595.92 356.259ZM617.857 363V360.981C617.367 361.701 616.719 362.268 615.915 362.683C615.119 363.097 614.277 363.305 613.389 363.305C612.483 363.305 611.671 363.106 610.951 362.708C610.232 362.31 609.711 361.752 609.39 361.032C609.068 360.313 608.907 359.318 608.907 358.049V349.518H612.475V355.713C612.475 357.609 612.538 358.772 612.665 359.204C612.8 359.627 613.042 359.966 613.389 360.22C613.736 360.465 614.176 360.588 614.709 360.588C615.318 360.588 615.864 360.423 616.347 360.093C616.829 359.754 617.159 359.34 617.337 358.849C617.515 358.349 617.604 357.135 617.604 355.205V349.518H621.171V363H617.857ZM624.548 363.889L628.623 364.384C628.691 364.858 628.847 365.184 629.093 365.361C629.431 365.615 629.965 365.742 630.692 365.742C631.623 365.742 632.322 365.603 632.787 365.323C633.1 365.137 633.337 364.837 633.498 364.422C633.608 364.126 633.663 363.58 633.663 362.784V360.816C632.597 362.272 631.251 363 629.626 363C627.815 363 626.38 362.234 625.322 360.702C624.493 359.492 624.078 357.985 624.078 356.183C624.078 353.923 624.62 352.196 625.703 351.003C626.795 349.81 628.149 349.213 629.766 349.213C631.433 349.213 632.808 349.945 633.892 351.409V349.518H637.23V361.616C637.23 363.207 637.099 364.396 636.837 365.184C636.575 365.971 636.206 366.589 635.732 367.037C635.258 367.486 634.624 367.837 633.828 368.091C633.041 368.345 632.042 368.472 630.832 368.472C628.547 368.472 626.926 368.078 625.97 367.291C625.013 366.512 624.535 365.522 624.535 364.32C624.535 364.202 624.539 364.058 624.548 363.889ZM627.734 355.979C627.734 357.41 628.009 358.459 628.56 359.128C629.118 359.788 629.804 360.118 630.616 360.118C631.488 360.118 632.224 359.78 632.825 359.103C633.426 358.417 633.727 357.406 633.727 356.068C633.727 354.672 633.439 353.635 632.863 352.958C632.288 352.281 631.56 351.942 630.68 351.942C629.825 351.942 629.118 352.277 628.56 352.945C628.009 353.605 627.734 354.617 627.734 355.979ZM644.327 344.389V351.231C645.478 349.886 646.854 349.213 648.453 349.213C649.274 349.213 650.015 349.365 650.675 349.67C651.335 349.975 651.83 350.364 652.16 350.838C652.499 351.312 652.727 351.837 652.846 352.412C652.973 352.988 653.036 353.881 653.036 355.091V363H649.469V355.878C649.469 354.465 649.401 353.567 649.266 353.187C649.13 352.806 648.889 352.505 648.542 352.285C648.203 352.057 647.776 351.942 647.26 351.942C646.667 351.942 646.138 352.086 645.673 352.374C645.207 352.662 644.865 353.098 644.645 353.682C644.433 354.257 644.327 355.112 644.327 356.246V363H640.76V344.389H644.327ZM662.85 349.518V352.361H660.412V357.795C660.412 358.895 660.433 359.538 660.476 359.725C660.526 359.902 660.632 360.05 660.793 360.169C660.962 360.287 661.165 360.347 661.402 360.347C661.732 360.347 662.211 360.232 662.837 360.004L663.142 362.771C662.312 363.127 661.373 363.305 660.323 363.305C659.68 363.305 659.1 363.199 658.584 362.987C658.068 362.767 657.687 362.488 657.441 362.149C657.204 361.802 657.039 361.337 656.946 360.753C656.87 360.338 656.832 359.5 656.832 358.239V352.361H655.194V349.518H656.832V346.839L660.412 344.757V349.518H662.85Z" fill="#343434"/>
<g id="Group 47">
<path id="Vector 29" d="M483 424V573H428.5" stroke="#343434" stroke-width="4"/>
<g id="Group 45">
<g id="Group 40_3">
<path id="Input_3" d="M25.4248 433V414.389H27.8877V433H25.4248ZM31.9502 433V419.518H34.0068V421.435C34.9971 419.953 36.4274 419.213 38.2979 419.213C39.1104 419.213 39.8551 419.361 40.5322 419.657C41.2178 419.945 41.7298 420.326 42.0684 420.8C42.4069 421.274 42.6439 421.837 42.7793 422.488C42.8639 422.911 42.9062 423.652 42.9062 424.71V433H40.6211V424.799C40.6211 423.868 40.5322 423.174 40.3545 422.717C40.1768 422.251 39.8594 421.883 39.4023 421.612C38.9538 421.333 38.4248 421.193 37.8154 421.193C36.8421 421.193 36 421.502 35.2891 422.12C34.5866 422.738 34.2354 423.91 34.2354 425.637V433H31.9502ZM46.4229 438.167V419.518H48.5049V421.27C48.9958 420.584 49.5501 420.072 50.168 419.733C50.7858 419.386 51.5348 419.213 52.415 419.213C53.5661 419.213 54.5817 419.509 55.4619 420.102C56.3421 420.694 57.0065 421.532 57.4551 422.615C57.9036 423.69 58.1279 424.871 58.1279 426.157C58.1279 427.537 57.8783 428.781 57.3789 429.89C56.888 430.99 56.1686 431.836 55.2207 432.429C54.2812 433.013 53.291 433.305 52.25 433.305C51.4883 433.305 50.8027 433.144 50.1934 432.822C49.5924 432.501 49.0973 432.094 48.708 431.604V438.167H46.4229ZM48.4922 426.335C48.4922 428.07 48.8434 429.352 49.5459 430.182C50.2484 431.011 51.099 431.426 52.0977 431.426C53.1133 431.426 53.9808 430.998 54.7002 430.144C55.4281 429.28 55.792 427.947 55.792 426.145C55.792 424.426 55.4365 423.14 54.7256 422.285C54.0231 421.43 53.181 421.003 52.1992 421.003C51.2259 421.003 50.3626 421.46 49.6094 422.374C48.8646 423.28 48.4922 424.6 48.4922 426.335ZM69.7314 433V431.02C68.682 432.543 67.2559 433.305 65.4531 433.305C64.6576 433.305 63.9128 433.152 63.2188 432.848C62.5332 432.543 62.0212 432.162 61.6826 431.705C61.3525 431.24 61.1198 430.673 60.9844 430.004C60.8913 429.555 60.8447 428.844 60.8447 427.871V419.518H63.1299V426.995C63.1299 428.188 63.1764 428.993 63.2695 429.407C63.4134 430.008 63.7181 430.482 64.1836 430.829C64.6491 431.168 65.2246 431.337 65.9102 431.337C66.5957 431.337 67.2389 431.163 67.8398 430.816C68.4408 430.461 68.8639 429.983 69.1094 429.382C69.3633 428.772 69.4902 427.892 69.4902 426.741V419.518H71.7754V433H69.7314ZM80.3574 430.956L80.6875 432.975C80.0443 433.11 79.4688 433.178 78.9609 433.178C78.1315 433.178 77.4883 433.047 77.0312 432.784C76.5742 432.522 76.2526 432.179 76.0664 431.756C75.8802 431.324 75.7871 430.423 75.7871 429.052V421.295H74.1113V419.518H75.7871V416.179L78.0596 414.808V419.518H80.3574V421.295H78.0596V429.179C78.0596 429.83 78.0977 430.249 78.1738 430.436C78.2585 430.622 78.3896 430.77 78.5674 430.88C78.7536 430.99 79.016 431.045 79.3545 431.045C79.6084 431.045 79.9427 431.015 80.3574 430.956Z" fill="#343434"/>
<rect id="Rectangle 56_7" x="1.5" y="400.5" width="101" height="47" rx="10.5" stroke="#343434" stroke-width="3"/>
</g>
<g id="Group 41_3">
<path id="Output_3" d="M931.257 423.936C931.257 420.846 932.086 418.43 933.745 416.687C935.404 414.935 937.545 414.059 940.169 414.059C941.887 414.059 943.436 414.469 944.815 415.29C946.195 416.111 947.244 417.258 947.964 418.73C948.692 420.195 949.056 421.858 949.056 423.72C949.056 425.607 948.675 427.296 947.913 428.785C947.151 430.275 946.072 431.405 944.676 432.175C943.279 432.937 941.773 433.317 940.156 433.317C938.404 433.317 936.839 432.894 935.459 432.048C934.079 431.201 933.034 430.046 932.323 428.582C931.612 427.118 931.257 425.569 931.257 423.936ZM933.796 423.974C933.796 426.216 934.397 427.985 935.599 429.28C936.809 430.567 938.324 431.21 940.144 431.21C941.997 431.21 943.521 430.558 944.714 429.255C945.916 427.951 946.517 426.102 946.517 423.707C946.517 422.192 946.258 420.872 945.742 419.746C945.234 418.612 944.485 417.736 943.495 417.118C942.513 416.492 941.409 416.179 940.182 416.179C938.438 416.179 936.936 416.78 935.675 417.981C934.422 419.175 933.796 421.172 933.796 423.974ZM960.786 433V431.02C959.737 432.543 958.311 433.305 956.508 433.305C955.712 433.305 954.967 433.152 954.273 432.848C953.588 432.543 953.076 432.162 952.737 431.705C952.407 431.24 952.174 430.673 952.039 430.004C951.946 429.555 951.899 428.844 951.899 427.871V419.518H954.185V426.995C954.185 428.188 954.231 428.993 954.324 429.407C954.468 430.008 954.773 430.482 955.238 430.829C955.704 431.168 956.279 431.337 956.965 431.337C957.65 431.337 958.294 431.163 958.895 430.816C959.495 430.461 959.919 429.983 960.164 429.382C960.418 428.772 960.545 427.892 960.545 426.741V419.518H962.83V433H960.786ZM971.412 430.956L971.742 432.975C971.099 433.11 970.523 433.178 970.016 433.178C969.186 433.178 968.543 433.047 968.086 432.784C967.629 432.522 967.307 432.179 967.121 431.756C966.935 431.324 966.842 430.423 966.842 429.052V421.295H965.166V419.518H966.842V416.179L969.114 414.808V419.518H971.412V421.295H969.114V429.179C969.114 429.83 969.152 430.249 969.229 430.436C969.313 430.622 969.444 430.77 969.622 430.88C969.808 430.99 970.071 431.045 970.409 431.045C970.663 431.045 970.997 431.015 971.412 430.956ZM973.659 438.167V419.518H975.741V421.27C976.232 420.584 976.786 420.072 977.404 419.733C978.022 419.386 978.771 419.213 979.651 419.213C980.802 419.213 981.818 419.509 982.698 420.102C983.578 420.694 984.243 421.532 984.691 422.615C985.14 423.69 985.364 424.871 985.364 426.157C985.364 427.537 985.115 428.781 984.615 429.89C984.124 430.99 983.405 431.836 982.457 432.429C981.518 433.013 980.527 433.305 979.486 433.305C978.725 433.305 978.039 433.144 977.43 432.822C976.829 432.501 976.334 432.094 975.944 431.604V438.167H973.659ZM975.729 426.335C975.729 428.07 976.08 429.352 976.782 430.182C977.485 431.011 978.335 431.426 979.334 431.426C980.35 431.426 981.217 430.998 981.937 430.144C982.664 429.28 983.028 427.947 983.028 426.145C983.028 424.426 982.673 423.14 981.962 422.285C981.259 421.43 980.417 421.003 979.436 421.003C978.462 421.003 977.599 421.46 976.846 422.374C976.101 423.28 975.729 424.6 975.729 426.335ZM996.968 433V431.02C995.918 432.543 994.492 433.305 992.689 433.305C991.894 433.305 991.149 433.152 990.455 432.848C989.77 432.543 989.257 432.162 988.919 431.705C988.589 431.24 988.356 430.673 988.221 430.004C988.128 429.555 988.081 428.844 988.081 427.871V419.518H990.366V426.995C990.366 428.188 990.413 428.993 990.506 429.407C990.65 430.008 990.954 430.482 991.42 430.829C991.885 431.168 992.461 431.337 993.146 431.337C993.832 431.337 994.475 431.163 995.076 430.816C995.677 430.461 996.1 429.983 996.346 429.382C996.6 428.772 996.727 427.892 996.727 426.741V419.518H999.012V433H996.968ZM1007.59 430.956L1007.92 432.975C1007.28 433.11 1006.71 433.178 1006.2 433.178C1005.37 433.178 1004.72 433.047 1004.27 432.784C1003.81 432.522 1003.49 432.179 1003.3 431.756C1003.12 431.324 1003.02 430.423 1003.02 429.052V421.295H1001.35V419.518H1003.02V416.179L1005.3 414.808V419.518H1007.59V421.295H1005.3V429.179C1005.3 429.83 1005.33 430.249 1005.41 430.436C1005.49 430.622 1005.63 430.77 1005.8 430.88C1005.99 430.99 1006.25 431.045 1006.59 431.045C1006.84 431.045 1007.18 431.015 1007.59 430.956Z" fill="#343434"/>
<rect id="Rectangle 56_8" x="919.5" y="400.5" width="101" height="47" rx="10.5" stroke="#343434" stroke-width="3"/>
</g>
<g id="Group 42_3">
<path id="Thought_3" d="M293.741 433V416.585H287.609V414.389H302.361V416.585H296.204V433H293.741ZM304.608 433V414.389H306.894V421.066C307.96 419.831 309.306 419.213 310.931 419.213C311.929 419.213 312.797 419.412 313.533 419.81C314.27 420.199 314.794 420.741 315.107 421.435C315.429 422.129 315.59 423.136 315.59 424.456V433H313.305V424.456C313.305 423.313 313.055 422.484 312.556 421.968C312.065 421.443 311.367 421.181 310.461 421.181C309.784 421.181 309.145 421.358 308.544 421.714C307.951 422.061 307.528 422.535 307.274 423.136C307.021 423.737 306.894 424.566 306.894 425.624V433H304.608ZM318.23 426.259C318.23 423.762 318.924 421.913 320.312 420.711C321.472 419.712 322.885 419.213 324.553 419.213C326.406 419.213 327.921 419.822 329.098 421.041C330.274 422.251 330.862 423.927 330.862 426.068C330.862 427.803 330.6 429.17 330.075 430.169C329.559 431.159 328.801 431.929 327.803 432.479C326.812 433.03 325.729 433.305 324.553 433.305C322.665 433.305 321.138 432.7 319.97 431.489C318.81 430.279 318.23 428.535 318.23 426.259ZM320.579 426.259C320.579 427.985 320.956 429.28 321.709 430.144C322.462 430.998 323.41 431.426 324.553 431.426C325.687 431.426 326.631 430.994 327.384 430.131C328.137 429.268 328.514 427.951 328.514 426.183C328.514 424.515 328.133 423.254 327.371 422.399C326.618 421.536 325.678 421.104 324.553 421.104C323.41 421.104 322.462 421.532 321.709 422.387C320.956 423.242 320.579 424.532 320.579 426.259ZM342.39 433V431.02C341.34 432.543 339.914 433.305 338.111 433.305C337.316 433.305 336.571 433.152 335.877 432.848C335.191 432.543 334.679 432.162 334.341 431.705C334.011 431.24 333.778 430.673 333.643 430.004C333.549 429.555 333.503 428.844 333.503 427.871V419.518H335.788V426.995C335.788 428.188 335.835 428.993 335.928 429.407C336.072 430.008 336.376 430.482 336.842 430.829C337.307 431.168 337.883 431.337 338.568 431.337C339.254 431.337 339.897 431.163 340.498 430.816C341.099 430.461 341.522 429.983 341.768 429.382C342.021 428.772 342.148 427.892 342.148 426.741V419.518H344.434V433H342.39ZM347.607 434.117L349.829 434.447C349.922 435.133 350.18 435.632 350.604 435.945C351.171 436.368 351.945 436.58 352.927 436.58C353.985 436.58 354.801 436.368 355.377 435.945C355.952 435.522 356.342 434.93 356.545 434.168C356.663 433.702 356.718 432.725 356.71 431.235C355.711 432.412 354.467 433 352.978 433C351.124 433 349.689 432.331 348.674 430.994C347.658 429.657 347.15 428.053 347.15 426.183C347.15 424.896 347.383 423.711 347.849 422.628C348.314 421.536 348.987 420.694 349.867 420.102C350.756 419.509 351.797 419.213 352.99 419.213C354.581 419.213 355.893 419.856 356.926 421.143V419.518H359.033V431.172C359.033 433.271 358.817 434.756 358.386 435.628C357.963 436.508 357.285 437.202 356.354 437.71C355.432 438.218 354.294 438.472 352.939 438.472C351.331 438.472 350.032 438.108 349.042 437.38C348.052 436.66 347.574 435.573 347.607 434.117ZM349.499 426.018C349.499 427.786 349.85 429.077 350.553 429.89C351.255 430.702 352.135 431.108 353.193 431.108C354.243 431.108 355.123 430.706 355.834 429.902C356.545 429.09 356.9 427.82 356.9 426.094C356.9 424.443 356.532 423.199 355.796 422.361C355.068 421.523 354.188 421.104 353.155 421.104C352.14 421.104 351.276 421.519 350.565 422.349C349.854 423.17 349.499 424.393 349.499 426.018ZM362.499 433V414.389H364.784V421.066C365.851 419.831 367.196 419.213 368.821 419.213C369.82 419.213 370.688 419.412 371.424 419.81C372.16 420.199 372.685 420.741 372.998 421.435C373.32 422.129 373.48 423.136 373.48 424.456V433H371.195V424.456C371.195 423.313 370.946 422.484 370.446 421.968C369.955 421.443 369.257 421.181 368.352 421.181C367.674 421.181 367.035 421.358 366.435 421.714C365.842 422.061 365.419 422.535 365.165 423.136C364.911 423.737 364.784 424.566 364.784 425.624V433H362.499ZM381.961 430.956L382.291 432.975C381.648 433.11 381.072 433.178 380.564 433.178C379.735 433.178 379.092 433.047 378.635 432.784C378.178 432.522 377.856 432.179 377.67 431.756C377.484 431.324 377.391 430.423 377.391 429.052V421.295H375.715V419.518H377.391V416.179L379.663 414.808V419.518H381.961V421.295H379.663V429.179C379.663 429.83 379.701 430.249 379.777 430.436C379.862 430.622 379.993 430.77 380.171 430.88C380.357 430.99 380.619 431.045 380.958 431.045C381.212 431.045 381.546 431.015 381.961 430.956Z" fill="#343434"/>
<rect id="Rectangle 56_9" x="240.5" y="400.5" width="188" height="47" rx="10.5" stroke="#FF8C06" stroke-width="3" stroke-dasharray="8 8"/>
</g>
<g id="Group 44_2">
<path id="Visualization" d="M268.325 582L261.114 563.389H263.78L268.617 576.909C269.007 577.993 269.332 579.008 269.595 579.956C269.882 578.94 270.217 577.925 270.598 576.909L275.625 563.389H278.139L270.852 582H268.325ZM279.586 566.017V563.389H281.871V566.017H279.586ZM279.586 582V568.518H281.871V582H279.586ZM284.448 577.976L286.708 577.62C286.835 578.526 287.186 579.22 287.762 579.702C288.346 580.185 289.158 580.426 290.199 580.426C291.249 580.426 292.027 580.214 292.535 579.791C293.043 579.359 293.297 578.856 293.297 578.28C293.297 577.764 293.073 577.358 292.624 577.062C292.311 576.858 291.532 576.6 290.288 576.287C288.612 575.864 287.449 575.5 286.797 575.195C286.154 574.882 285.663 574.455 285.324 573.913C284.994 573.363 284.829 572.758 284.829 572.098C284.829 571.497 284.965 570.942 285.235 570.435C285.515 569.918 285.891 569.491 286.365 569.152C286.721 568.89 287.203 568.67 287.812 568.492C288.43 568.306 289.09 568.213 289.793 568.213C290.851 568.213 291.778 568.365 292.573 568.67C293.377 568.975 293.97 569.389 294.351 569.914C294.731 570.43 294.994 571.124 295.138 571.996L292.903 572.301C292.802 571.607 292.506 571.065 292.015 570.676C291.532 570.286 290.847 570.092 289.958 570.092C288.909 570.092 288.16 570.265 287.711 570.612C287.262 570.959 287.038 571.366 287.038 571.831C287.038 572.127 287.131 572.394 287.317 572.631C287.504 572.876 287.796 573.079 288.193 573.24C288.422 573.325 289.095 573.52 290.212 573.824C291.828 574.256 292.954 574.611 293.589 574.891C294.232 575.161 294.736 575.559 295.1 576.084C295.464 576.609 295.646 577.26 295.646 578.039C295.646 578.801 295.421 579.52 294.973 580.197C294.533 580.866 293.894 581.386 293.056 581.759C292.218 582.123 291.27 582.305 290.212 582.305C288.46 582.305 287.123 581.941 286.2 581.213C285.286 580.485 284.702 579.406 284.448 577.976ZM307.198 582V580.02C306.149 581.543 304.723 582.305 302.92 582.305C302.124 582.305 301.38 582.152 300.686 581.848C300 581.543 299.488 581.162 299.149 580.705C298.819 580.24 298.587 579.673 298.451 579.004C298.358 578.555 298.312 577.844 298.312 576.871V568.518H300.597V575.995C300.597 577.188 300.643 577.993 300.736 578.407C300.88 579.008 301.185 579.482 301.65 579.829C302.116 580.168 302.691 580.337 303.377 580.337C304.062 580.337 304.706 580.163 305.307 579.816C305.908 579.461 306.331 578.983 306.576 578.382C306.83 577.772 306.957 576.892 306.957 575.741V568.518H309.242V582H307.198ZM321.633 580.337C320.786 581.056 319.97 581.564 319.183 581.86C318.404 582.157 317.566 582.305 316.669 582.305C315.188 582.305 314.049 581.945 313.254 581.226C312.458 580.498 312.061 579.571 312.061 578.445C312.061 577.785 312.209 577.184 312.505 576.643C312.81 576.092 313.203 575.652 313.686 575.322C314.176 574.992 314.727 574.743 315.336 574.573C315.785 574.455 316.462 574.34 317.367 574.23C319.212 574.01 320.571 573.748 321.442 573.443C321.451 573.13 321.455 572.931 321.455 572.847C321.455 571.916 321.239 571.26 320.808 570.879C320.224 570.363 319.356 570.104 318.205 570.104C317.13 570.104 316.335 570.295 315.818 570.676C315.311 571.048 314.934 571.713 314.688 572.669L312.454 572.364C312.657 571.408 312.992 570.638 313.457 570.054C313.923 569.461 314.595 569.008 315.476 568.695C316.356 568.374 317.376 568.213 318.535 568.213C319.686 568.213 320.621 568.348 321.341 568.619C322.06 568.89 322.589 569.233 322.928 569.647C323.266 570.054 323.503 570.57 323.639 571.196C323.715 571.586 323.753 572.288 323.753 573.304V576.351C323.753 578.475 323.799 579.821 323.893 580.388C323.994 580.946 324.189 581.484 324.477 582H322.09C321.853 581.526 321.701 580.972 321.633 580.337ZM321.442 575.233C320.613 575.572 319.369 575.86 317.71 576.097C316.771 576.232 316.106 576.384 315.717 576.554C315.327 576.723 315.027 576.973 314.815 577.303C314.604 577.624 314.498 577.984 314.498 578.382C314.498 578.991 314.727 579.499 315.184 579.905C315.649 580.312 316.326 580.515 317.215 580.515C318.095 580.515 318.878 580.324 319.563 579.943C320.249 579.554 320.753 579.025 321.074 578.356C321.32 577.84 321.442 577.078 321.442 576.071V575.233ZM327.257 582V563.389H329.542V582H327.257ZM333.109 566.017V563.389H335.395V566.017H333.109ZM333.109 582V568.518H335.395V582H333.109ZM337.68 582V580.146L346.262 570.295C345.288 570.346 344.429 570.371 343.685 570.371H338.188V568.518H349.207V570.028L341.907 578.585L340.498 580.146C341.522 580.07 342.483 580.032 343.38 580.032H349.613V582H337.68ZM360.684 580.337C359.837 581.056 359.021 581.564 358.233 581.86C357.455 582.157 356.617 582.305 355.72 582.305C354.239 582.305 353.1 581.945 352.305 581.226C351.509 580.498 351.111 579.571 351.111 578.445C351.111 577.785 351.259 577.184 351.556 576.643C351.86 576.092 352.254 575.652 352.736 575.322C353.227 574.992 353.777 574.743 354.387 574.573C354.835 574.455 355.512 574.34 356.418 574.23C358.263 574.01 359.621 573.748 360.493 573.443C360.502 573.13 360.506 572.931 360.506 572.847C360.506 571.916 360.29 571.26 359.858 570.879C359.274 570.363 358.407 570.104 357.256 570.104C356.181 570.104 355.385 570.295 354.869 570.676C354.361 571.048 353.985 571.713 353.739 572.669L351.505 572.364C351.708 571.408 352.042 570.638 352.508 570.054C352.973 569.461 353.646 569.008 354.526 568.695C355.407 568.374 356.426 568.213 357.586 568.213C358.737 568.213 359.672 568.348 360.392 568.619C361.111 568.89 361.64 569.233 361.979 569.647C362.317 570.054 362.554 570.57 362.689 571.196C362.766 571.586 362.804 572.288 362.804 573.304V576.351C362.804 578.475 362.85 579.821 362.943 580.388C363.045 580.946 363.24 581.484 363.527 582H361.141C360.904 581.526 360.751 580.972 360.684 580.337ZM360.493 575.233C359.664 575.572 358.42 575.86 356.761 576.097C355.821 576.232 355.157 576.384 354.768 576.554C354.378 576.723 354.078 576.973 353.866 577.303C353.655 577.624 353.549 577.984 353.549 578.382C353.549 578.991 353.777 579.499 354.234 579.905C354.7 580.312 355.377 580.515 356.266 580.515C357.146 580.515 357.929 580.324 358.614 579.943C359.3 579.554 359.803 579.025 360.125 578.356C360.37 577.84 360.493 577.078 360.493 576.071V575.233ZM371.348 579.956L371.678 581.975C371.035 582.11 370.459 582.178 369.951 582.178C369.122 582.178 368.479 582.047 368.021 581.784C367.564 581.522 367.243 581.179 367.057 580.756C366.87 580.324 366.777 579.423 366.777 578.052V570.295H365.102V568.518H366.777V565.179L369.05 563.808V568.518H371.348V570.295H369.05V578.179C369.05 578.83 369.088 579.249 369.164 579.436C369.249 579.622 369.38 579.77 369.558 579.88C369.744 579.99 370.006 580.045 370.345 580.045C370.599 580.045 370.933 580.015 371.348 579.956ZM373.607 566.017V563.389H375.893V566.017H373.607ZM373.607 582V568.518H375.893V582H373.607ZM378.533 575.259C378.533 572.762 379.227 570.913 380.615 569.711C381.775 568.712 383.188 568.213 384.855 568.213C386.709 568.213 388.224 568.822 389.4 570.041C390.577 571.251 391.165 572.927 391.165 575.068C391.165 576.803 390.903 578.17 390.378 579.169C389.862 580.159 389.104 580.929 388.105 581.479C387.115 582.03 386.032 582.305 384.855 582.305C382.968 582.305 381.44 581.7 380.272 580.489C379.113 579.279 378.533 577.535 378.533 575.259ZM380.882 575.259C380.882 576.985 381.258 578.28 382.012 579.144C382.765 579.998 383.713 580.426 384.855 580.426C385.99 580.426 386.933 579.994 387.687 579.131C388.44 578.268 388.816 576.951 388.816 575.183C388.816 573.515 388.436 572.254 387.674 571.399C386.921 570.536 385.981 570.104 384.855 570.104C383.713 570.104 382.765 570.532 382.012 571.387C381.258 572.242 380.882 573.532 380.882 575.259ZM393.856 582V568.518H395.913V570.435C396.903 568.953 398.334 568.213 400.204 568.213C401.017 568.213 401.761 568.361 402.438 568.657C403.124 568.945 403.636 569.326 403.975 569.8C404.313 570.274 404.55 570.837 404.686 571.488C404.77 571.911 404.812 572.652 404.812 573.71V582H402.527V573.799C402.527 572.868 402.438 572.174 402.261 571.717C402.083 571.251 401.766 570.883 401.309 570.612C400.86 570.333 400.331 570.193 399.722 570.193C398.748 570.193 397.906 570.502 397.195 571.12C396.493 571.738 396.142 572.91 396.142 574.637V582H393.856Z" fill="#343434"/>
<rect id="Rectangle 56_10" x="240.5" y="549.5" width="188" height="47" rx="10.5" stroke="#00B6FF" stroke-width="3" stroke-dasharray="8 8"/>
</g>
<g id="Group 45_2">
<path id="Visualization_2" d="M592.325 582L585.114 563.389H587.78L592.617 576.909C593.007 577.993 593.332 579.008 593.595 579.956C593.882 578.94 594.217 577.925 594.598 576.909L599.625 563.389H602.139L594.852 582H592.325ZM603.586 566.017V563.389H605.871V566.017H603.586ZM603.586 582V568.518H605.871V582H603.586ZM608.448 577.976L610.708 577.62C610.835 578.526 611.186 579.22 611.762 579.702C612.346 580.185 613.158 580.426 614.199 580.426C615.249 580.426 616.027 580.214 616.535 579.791C617.043 579.359 617.297 578.856 617.297 578.28C617.297 577.764 617.073 577.358 616.624 577.062C616.311 576.858 615.532 576.6 614.288 576.287C612.612 575.864 611.449 575.5 610.797 575.195C610.154 574.882 609.663 574.455 609.324 573.913C608.994 573.363 608.829 572.758 608.829 572.098C608.829 571.497 608.965 570.942 609.235 570.435C609.515 569.918 609.891 569.491 610.365 569.152C610.721 568.89 611.203 568.67 611.812 568.492C612.43 568.306 613.09 568.213 613.793 568.213C614.851 568.213 615.778 568.365 616.573 568.67C617.377 568.975 617.97 569.389 618.351 569.914C618.731 570.43 618.994 571.124 619.138 571.996L616.903 572.301C616.802 571.607 616.506 571.065 616.015 570.676C615.532 570.286 614.847 570.092 613.958 570.092C612.909 570.092 612.16 570.265 611.711 570.612C611.262 570.959 611.038 571.366 611.038 571.831C611.038 572.127 611.131 572.394 611.317 572.631C611.504 572.876 611.796 573.079 612.193 573.24C612.422 573.325 613.095 573.52 614.212 573.824C615.828 574.256 616.954 574.611 617.589 574.891C618.232 575.161 618.736 575.559 619.1 576.084C619.464 576.609 619.646 577.26 619.646 578.039C619.646 578.801 619.421 579.52 618.973 580.197C618.533 580.866 617.894 581.386 617.056 581.759C616.218 582.123 615.27 582.305 614.212 582.305C612.46 582.305 611.123 581.941 610.2 581.213C609.286 580.485 608.702 579.406 608.448 577.976ZM631.198 582V580.02C630.149 581.543 628.723 582.305 626.92 582.305C626.124 582.305 625.38 582.152 624.686 581.848C624 581.543 623.488 581.162 623.149 580.705C622.819 580.24 622.587 579.673 622.451 579.004C622.358 578.555 622.312 577.844 622.312 576.871V568.518H624.597V575.995C624.597 577.188 624.643 577.993 624.736 578.407C624.88 579.008 625.185 579.482 625.65 579.829C626.116 580.168 626.691 580.337 627.377 580.337C628.062 580.337 628.706 580.163 629.307 579.816C629.908 579.461 630.331 578.983 630.576 578.382C630.83 577.772 630.957 576.892 630.957 575.741V568.518H633.242V582H631.198ZM645.633 580.337C644.786 581.056 643.97 581.564 643.183 581.86C642.404 582.157 641.566 582.305 640.669 582.305C639.188 582.305 638.049 581.945 637.254 581.226C636.458 580.498 636.061 579.571 636.061 578.445C636.061 577.785 636.209 577.184 636.505 576.643C636.81 576.092 637.203 575.652 637.686 575.322C638.176 574.992 638.727 574.743 639.336 574.573C639.785 574.455 640.462 574.34 641.367 574.23C643.212 574.01 644.571 573.748 645.442 573.443C645.451 573.13 645.455 572.931 645.455 572.847C645.455 571.916 645.239 571.26 644.808 570.879C644.224 570.363 643.356 570.104 642.205 570.104C641.13 570.104 640.335 570.295 639.818 570.676C639.311 571.048 638.934 571.713 638.688 572.669L636.454 572.364C636.657 571.408 636.992 570.638 637.457 570.054C637.923 569.461 638.595 569.008 639.476 568.695C640.356 568.374 641.376 568.213 642.535 568.213C643.686 568.213 644.621 568.348 645.341 568.619C646.06 568.89 646.589 569.233 646.928 569.647C647.266 570.054 647.503 570.57 647.639 571.196C647.715 571.586 647.753 572.288 647.753 573.304V576.351C647.753 578.475 647.799 579.821 647.893 580.388C647.994 580.946 648.189 581.484 648.477 582H646.09C645.853 581.526 645.701 580.972 645.633 580.337ZM645.442 575.233C644.613 575.572 643.369 575.86 641.71 576.097C640.771 576.232 640.106 576.384 639.717 576.554C639.327 576.723 639.027 576.973 638.815 577.303C638.604 577.624 638.498 577.984 638.498 578.382C638.498 578.991 638.727 579.499 639.184 579.905C639.649 580.312 640.326 580.515 641.215 580.515C642.095 580.515 642.878 580.324 643.563 579.943C644.249 579.554 644.753 579.025 645.074 578.356C645.32 577.84 645.442 577.078 645.442 576.071V575.233ZM651.257 582V563.389H653.542V582H651.257ZM657.109 566.017V563.389H659.395V566.017H657.109ZM657.109 582V568.518H659.395V582H657.109ZM661.68 582V580.146L670.262 570.295C669.288 570.346 668.429 570.371 667.685 570.371H662.188V568.518H673.207V570.028L665.907 578.585L664.498 580.146C665.522 580.07 666.483 580.032 667.38 580.032H673.613V582H661.68ZM684.684 580.337C683.837 581.056 683.021 581.564 682.233 581.86C681.455 582.157 680.617 582.305 679.72 582.305C678.239 582.305 677.1 581.945 676.305 581.226C675.509 580.498 675.111 579.571 675.111 578.445C675.111 577.785 675.259 577.184 675.556 576.643C675.86 576.092 676.254 575.652 676.736 575.322C677.227 574.992 677.777 574.743 678.387 574.573C678.835 574.455 679.512 574.34 680.418 574.23C682.263 574.01 683.621 573.748 684.493 573.443C684.502 573.13 684.506 572.931 684.506 572.847C684.506 571.916 684.29 571.26 683.858 570.879C683.274 570.363 682.407 570.104 681.256 570.104C680.181 570.104 679.385 570.295 678.869 570.676C678.361 571.048 677.985 571.713 677.739 572.669L675.505 572.364C675.708 571.408 676.042 570.638 676.508 570.054C676.973 569.461 677.646 569.008 678.526 568.695C679.407 568.374 680.426 568.213 681.586 568.213C682.737 568.213 683.672 568.348 684.392 568.619C685.111 568.89 685.64 569.233 685.979 569.647C686.317 570.054 686.554 570.57 686.689 571.196C686.766 571.586 686.804 572.288 686.804 573.304V576.351C686.804 578.475 686.85 579.821 686.943 580.388C687.045 580.946 687.24 581.484 687.527 582H685.141C684.904 581.526 684.751 580.972 684.684 580.337ZM684.493 575.233C683.664 575.572 682.42 575.86 680.761 576.097C679.821 576.232 679.157 576.384 678.768 576.554C678.378 576.723 678.078 576.973 677.866 577.303C677.655 577.624 677.549 577.984 677.549 578.382C677.549 578.991 677.777 579.499 678.234 579.905C678.7 580.312 679.377 580.515 680.266 580.515C681.146 580.515 681.929 580.324 682.614 579.943C683.3 579.554 683.803 579.025 684.125 578.356C684.37 577.84 684.493 577.078 684.493 576.071V575.233ZM695.348 579.956L695.678 581.975C695.035 582.11 694.459 582.178 693.951 582.178C693.122 582.178 692.479 582.047 692.021 581.784C691.564 581.522 691.243 581.179 691.057 580.756C690.87 580.324 690.777 579.423 690.777 578.052V570.295H689.102V568.518H690.777V565.179L693.05 563.808V568.518H695.348V570.295H693.05V578.179C693.05 578.83 693.088 579.249 693.164 579.436C693.249 579.622 693.38 579.77 693.558 579.88C693.744 579.99 694.006 580.045 694.345 580.045C694.599 580.045 694.933 580.015 695.348 579.956ZM697.607 566.017V563.389H699.893V566.017H697.607ZM697.607 582V568.518H699.893V582H697.607ZM702.533 575.259C702.533 572.762 703.227 570.913 704.615 569.711C705.775 568.712 707.188 568.213 708.855 568.213C710.709 568.213 712.224 568.822 713.4 570.041C714.577 571.251 715.165 572.927 715.165 575.068C715.165 576.803 714.903 578.17 714.378 579.169C713.862 580.159 713.104 580.929 712.105 581.479C711.115 582.03 710.032 582.305 708.855 582.305C706.968 582.305 705.44 581.7 704.272 580.489C703.113 579.279 702.533 577.535 702.533 575.259ZM704.882 575.259C704.882 576.985 705.258 578.28 706.012 579.144C706.765 579.998 707.713 580.426 708.855 580.426C709.99 580.426 710.933 579.994 711.687 579.131C712.44 578.268 712.816 576.951 712.816 575.183C712.816 573.515 712.436 572.254 711.674 571.399C710.921 570.536 709.981 570.104 708.855 570.104C707.713 570.104 706.765 570.532 706.012 571.387C705.258 572.242 704.882 573.532 704.882 575.259ZM717.856 582V568.518H719.913V570.435C720.903 568.953 722.334 568.213 724.204 568.213C725.017 568.213 725.761 568.361 726.438 568.657C727.124 568.945 727.636 569.326 727.975 569.8C728.313 570.274 728.55 570.837 728.686 571.488C728.77 571.911 728.812 572.652 728.812 573.71V582H726.527V573.799C726.527 572.868 726.438 572.174 726.261 571.717C726.083 571.251 725.766 570.883 725.309 570.612C724.86 570.333 724.331 570.193 723.722 570.193C722.748 570.193 721.906 570.502 721.195 571.12C720.493 571.738 720.142 572.91 720.142 574.637V582H717.856Z" fill="#343434"/>
<rect id="Rectangle 56_11" x="564.5" y="549.5" width="188" height="47" rx="10.5" stroke="#00B6FF" stroke-width="3" stroke-dasharray="8 8"/>
</g>
<g id="Group 43">
<path id="Thought_4" d="M617.741 433V416.585H611.609V414.389H626.361V416.585H620.204V433H617.741ZM628.608 433V414.389H630.894V421.066C631.96 419.831 633.306 419.213 634.931 419.213C635.929 419.213 636.797 419.412 637.533 419.81C638.27 420.199 638.794 420.741 639.107 421.435C639.429 422.129 639.59 423.136 639.59 424.456V433H637.305V424.456C637.305 423.313 637.055 422.484 636.556 421.968C636.065 421.443 635.367 421.181 634.461 421.181C633.784 421.181 633.145 421.358 632.544 421.714C631.951 422.061 631.528 422.535 631.274 423.136C631.021 423.737 630.894 424.566 630.894 425.624V433H628.608ZM642.23 426.259C642.23 423.762 642.924 421.913 644.312 420.711C645.472 419.712 646.885 419.213 648.553 419.213C650.406 419.213 651.921 419.822 653.098 421.041C654.274 422.251 654.862 423.927 654.862 426.068C654.862 427.803 654.6 429.17 654.075 430.169C653.559 431.159 652.801 431.929 651.803 432.479C650.812 433.03 649.729 433.305 648.553 433.305C646.665 433.305 645.138 432.7 643.97 431.489C642.81 430.279 642.23 428.535 642.23 426.259ZM644.579 426.259C644.579 427.985 644.956 429.28 645.709 430.144C646.462 430.998 647.41 431.426 648.553 431.426C649.687 431.426 650.631 430.994 651.384 430.131C652.137 429.268 652.514 427.951 652.514 426.183C652.514 424.515 652.133 423.254 651.371 422.399C650.618 421.536 649.678 421.104 648.553 421.104C647.41 421.104 646.462 421.532 645.709 422.387C644.956 423.242 644.579 424.532 644.579 426.259ZM666.39 433V431.02C665.34 432.543 663.914 433.305 662.111 433.305C661.316 433.305 660.571 433.152 659.877 432.848C659.191 432.543 658.679 432.162 658.341 431.705C658.011 431.24 657.778 430.673 657.643 430.004C657.549 429.555 657.503 428.844 657.503 427.871V419.518H659.788V426.995C659.788 428.188 659.835 428.993 659.928 429.407C660.072 430.008 660.376 430.482 660.842 430.829C661.307 431.168 661.883 431.337 662.568 431.337C663.254 431.337 663.897 431.163 664.498 430.816C665.099 430.461 665.522 429.983 665.768 429.382C666.021 428.772 666.148 427.892 666.148 426.741V419.518H668.434V433H666.39ZM671.607 434.117L673.829 434.447C673.922 435.133 674.18 435.632 674.604 435.945C675.171 436.368 675.945 436.58 676.927 436.58C677.985 436.58 678.801 436.368 679.377 435.945C679.952 435.522 680.342 434.93 680.545 434.168C680.663 433.702 680.718 432.725 680.71 431.235C679.711 432.412 678.467 433 676.978 433C675.124 433 673.689 432.331 672.674 430.994C671.658 429.657 671.15 428.053 671.15 426.183C671.15 424.896 671.383 423.711 671.849 422.628C672.314 421.536 672.987 420.694 673.867 420.102C674.756 419.509 675.797 419.213 676.99 419.213C678.581 419.213 679.893 419.856 680.926 421.143V419.518H683.033V431.172C683.033 433.271 682.817 434.756 682.386 435.628C681.963 436.508 681.285 437.202 680.354 437.71C679.432 438.218 678.294 438.472 676.939 438.472C675.331 438.472 674.032 438.108 673.042 437.38C672.052 436.66 671.574 435.573 671.607 434.117ZM673.499 426.018C673.499 427.786 673.85 429.077 674.553 429.89C675.255 430.702 676.135 431.108 677.193 431.108C678.243 431.108 679.123 430.706 679.834 429.902C680.545 429.09 680.9 427.82 680.9 426.094C680.9 424.443 680.532 423.199 679.796 422.361C679.068 421.523 678.188 421.104 677.155 421.104C676.14 421.104 675.276 421.519 674.565 422.349C673.854 423.17 673.499 424.393 673.499 426.018ZM686.499 433V414.389H688.784V421.066C689.851 419.831 691.196 419.213 692.821 419.213C693.82 419.213 694.688 419.412 695.424 419.81C696.16 420.199 696.685 420.741 696.998 421.435C697.32 422.129 697.48 423.136 697.48 424.456V433H695.195V424.456C695.195 423.313 694.946 422.484 694.446 421.968C693.955 421.443 693.257 421.181 692.352 421.181C691.674 421.181 691.035 421.358 690.435 421.714C689.842 422.061 689.419 422.535 689.165 423.136C688.911 423.737 688.784 424.566 688.784 425.624V433H686.499ZM705.961 430.956L706.291 432.975C705.648 433.11 705.072 433.178 704.564 433.178C703.735 433.178 703.092 433.047 702.635 432.784C702.178 432.522 701.856 432.179 701.67 431.756C701.484 431.324 701.391 430.423 701.391 429.052V421.295H699.715V419.518H701.391V416.179L703.663 414.808V419.518H705.961V421.295H703.663V429.179C703.663 429.83 703.701 430.249 703.777 430.436C703.862 430.622 703.993 430.77 704.171 430.88C704.357 430.99 704.619 431.045 704.958 431.045C705.212 431.045 705.546 431.015 705.961 430.956Z" fill="#343434"/>
<rect id="Rectangle 56_12" x="564.5" y="400.5" width="188" height="47" rx="10.5" stroke="#FF8C06" stroke-width="3" stroke-dasharray="8 8"/>
</g>
<path id="Line 3_3" d="M235 424L215 412.453V435.547L235 424ZM108 426H217V422H108V426Z" fill="#343434"/>
<path id="Line 4_2" d="M560 424L540 412.453V435.547L560 424ZM433 426H542V422H433V426Z" fill="#343434"/>
<path id="Line 6" d="M335 548L346.547 528H323.453L335 548ZM333 449V530H337V449H333Z" fill="#343434"/>
<path id="Line 7" d="M659 548L670.547 528H647.453L659 548ZM657 449V530H661V449H657Z" fill="#343434"/>
<path id="Line 5_2" d="M913 424L893 412.453V435.547L913 424ZM786 426H895V422H786V426Z" fill="#343434"/>
<path id="..._2" d="M758.153 426V421.884H762.27V426H758.153ZM766.503 426V421.884H770.619V426H766.503ZM774.853 426V421.884H778.969V426H774.853Z" fill="black"/>
</g>
<g id="Group 44_3">
<g id="Vector 7" filter="url(#filter0_f_261_118)">
<path d="M692.47 492.53C666.546 474.851 640.442 482.639 624.76 492.622C619.77 495.798 619.831 502.793 624.778 506.036C650.919 523.175 676.826 515.591 692.327 505.864C697.289 502.749 697.31 495.831 692.47 492.53Z" fill="#6ED7FF"/>
</g>
<g id="Group 15">
<g id="Group 14">
<path id="Vector 8" d="M692.47 492.53C666.546 474.851 640.442 482.639 624.76 492.622C619.77 495.798 619.831 502.793 624.778 506.036C650.919 523.175 676.826 515.591 692.327 505.864C697.289 502.749 697.31 495.831 692.47 492.53Z" fill="#6ED7FF" stroke="#343434" stroke-width="6"/>
<circle id="Ellipse 4" cx="658.551" cy="499.112" r="12.4361" stroke="#343434" stroke-width="6"/>
</g>
</g>
</g>
<g id="Group 46">
<g id="Vector 7_2" filter="url(#filter1_f_261_118)">
<path d="M368.47 492.53C342.546 474.851 316.442 482.639 300.76 492.622C295.77 495.798 295.831 502.793 300.778 506.036C326.919 523.175 352.826 515.591 368.327 505.864C373.289 502.749 373.31 495.831 368.47 492.53Z" fill="#6ED7FF"/>
</g>
<g id="Group 15_2">
<g id="Group 14_2">
<path id="Vector 8_2" d="M368.47 492.53C342.546 474.851 316.442 482.639 300.76 492.622C295.77 495.798 295.831 502.793 300.778 506.036C326.919 523.175 352.826 515.591 368.327 505.864C373.289 502.749 373.31 495.831 368.47 492.53Z" fill="#6ED7FF" stroke="#343434" stroke-width="6"/>
<circle id="Ellipse 4_2" cx="334.551" cy="499.112" r="12.4361" stroke="#343434" stroke-width="6"/>
</g>
</g>
</g>
</g>
</g>
</g>
<defs>
<filter id="filter0_f_261_118" x="579.142" y="440.1" width="158.832" height="118.027" filterUnits="userSpaceOnUse" color-interpolation-filters="sRGB">
<feFlood flood-opacity="0" result="BackgroundImageFix"/>
<feBlend mode="normal" in="SourceGraphic" in2="BackgroundImageFix" result="shape"/>
<feGaussianBlur stdDeviation="20.95" result="effect1_foregroundBlur_261_118"/>
</filter>
<filter id="filter1_f_261_118" x="255.142" y="440.1" width="158.832" height="118.027" filterUnits="userSpaceOnUse" color-interpolation-filters="sRGB">
<feFlood flood-opacity="0" result="BackgroundImageFix"/>
<feBlend mode="normal" in="SourceGraphic" in2="BackgroundImageFix" result="shape"/>
<feGaussianBlur stdDeviation="20.95" result="effect1_foregroundBlur_261_118"/>
</filter>
</defs>
</svg>
